<svg id="Layer_1" data-name="Layer 1" xmlns="http://www.w3.org/2000/svg" xmlns:xlink="http://www.w3.org/1999/xlink" viewBox="0 0 99.08 18.91"><defs><style>.cls-1{fill:none;}.cls-2{isolation:isolate;}.cls-3{clip-path:url(#clip-path);}.cls-4{fill:#2f0a54;}.cls-5{clip-path:url(#clip-path-2);}.cls-6{clip-path:url(#clip-path-3);}.cls-7{clip-path:url(#clip-path-4);}.cls-8{clip-path:url(#clip-path-5);}.cls-9{clip-path:url(#clip-path-6);}.cls-10{clip-path:url(#clip-path-7);}.cls-11{clip-path:url(#clip-path-8);}.cls-12{fill:#2d0752;}.cls-13{clip-path:url(#clip-path-9);}.cls-14{clip-path:url(#clip-path-10);}.cls-15{clip-path:url(#clip-path-11);}.cls-16{fill:#472578;}.cls-17{clip-path:url(#clip-path-12);}.cls-18{clip-path:url(#clip-path-13);}.cls-19{clip-path:url(#clip-path-14);}.cls-20{clip-path:url(#clip-path-15);}.cls-21{clip-path:url(#clip-path-16);}.cls-22{clip-path:url(#clip-path-17);}.cls-23{clip-path:url(#clip-path-18);}.cls-24{clip-path:url(#clip-path-19);}.cls-25{clip-path:url(#clip-path-20);}.cls-26{clip-path:url(#clip-path-21);}.cls-27{clip-path:url(#clip-path-22);}.cls-28{clip-path:url(#clip-path-23);}.cls-29{clip-path:url(#clip-path-24);}.cls-30{clip-path:url(#clip-path-25);}.cls-31{clip-path:url(#clip-path-26);}.cls-32{clip-path:url(#clip-path-27);}.cls-33{clip-path:url(#clip-path-28);}.cls-34{clip-path:url(#clip-path-29);}.cls-35{clip-path:url(#clip-path-30);}.cls-36{clip-path:url(#clip-path-31);}.cls-37{clip-path:url(#clip-path-32);}.cls-38{clip-path:url(#clip-path-33);}.cls-39{clip-path:url(#clip-path-34);}.cls-40{clip-path:url(#clip-path-35);}.cls-41{clip-path:url(#clip-path-36);}.cls-42{clip-path:url(#clip-path-37);}.cls-43{clip-path:url(#clip-path-38);}.cls-44{clip-path:url(#clip-path-39);}.cls-45{clip-path:url(#clip-path-40);}.cls-46{clip-path:url(#clip-path-41);}.cls-47{clip-path:url(#clip-path-42);}.cls-48{clip-path:url(#clip-path-43);}.cls-49{clip-path:url(#clip-path-44);}.cls-50{clip-path:url(#clip-path-45);}.cls-51{clip-path:url(#clip-path-46);}.cls-52{clip-path:url(#clip-path-47);}.cls-53{clip-path:url(#clip-path-48);}.cls-54{clip-path:url(#clip-path-49);}.cls-55{clip-path:url(#clip-path-50);}.cls-56{clip-path:url(#clip-path-51);}.cls-57{clip-path:url(#clip-path-52);}.cls-58{clip-path:url(#clip-path-53);}.cls-59{clip-path:url(#clip-path-54);}.cls-60{clip-path:url(#clip-path-55);}.cls-61{clip-path:url(#clip-path-56);}.cls-62{clip-path:url(#clip-path-57);}.cls-63{clip-path:url(#clip-path-58);}.cls-64{clip-path:url(#clip-path-59);}.cls-65{clip-path:url(#clip-path-60);}.cls-66{clip-path:url(#clip-path-61);}.cls-67{clip-path:url(#clip-path-62);}.cls-68{clip-path:url(#clip-path-63);}.cls-69{clip-path:url(#clip-path-64);}.cls-70{clip-path:url(#clip-path-65);}.cls-71{clip-path:url(#clip-path-66);}.cls-72{clip-path:url(#clip-path-67);}.cls-73{clip-path:url(#clip-path-68);}.cls-74{clip-path:url(#clip-path-69);}.cls-75{clip-path:url(#clip-path-70);}.cls-76{clip-path:url(#clip-path-71);}.cls-77{clip-path:url(#clip-path-72);}.cls-78{clip-path:url(#clip-path-73);}.cls-79{clip-path:url(#clip-path-74);}.cls-80{clip-path:url(#clip-path-75);}.cls-81{clip-path:url(#clip-path-76);}.cls-82{clip-path:url(#clip-path-77);}.cls-83{clip-path:url(#clip-path-78);}.cls-84{clip-path:url(#clip-path-79);}.cls-85{clip-path:url(#clip-path-80);}.cls-86{clip-path:url(#clip-path-81);}.cls-87{clip-path:url(#clip-path-82);}.cls-88{clip-path:url(#clip-path-83);}.cls-89{clip-path:url(#clip-path-84);}.cls-90{clip-path:url(#clip-path-85);}.cls-91{clip-path:url(#clip-path-86);}.cls-92{clip-path:url(#clip-path-87);}.cls-93{clip-path:url(#clip-path-88);}.cls-94{clip-path:url(#clip-path-89);}.cls-95{clip-path:url(#clip-path-90);}.cls-96{clip-path:url(#clip-path-91);}.cls-97{clip-path:url(#clip-path-92);}.cls-98{clip-path:url(#clip-path-93);}.cls-99{clip-path:url(#clip-path-94);}.cls-100{clip-path:url(#clip-path-95);}.cls-101{clip-path:url(#clip-path-96);}.cls-102{clip-path:url(#clip-path-97);}.cls-103{clip-path:url(#clip-path-98);}.cls-104{clip-path:url(#clip-path-99);}.cls-105{clip-path:url(#clip-path-100);}.cls-106{clip-path:url(#clip-path-101);}.cls-107{clip-path:url(#clip-path-102);}.cls-108{clip-path:url(#clip-path-103);}.cls-109{clip-path:url(#clip-path-104);}.cls-110{clip-path:url(#clip-path-105);}.cls-111{clip-path:url(#clip-path-106);}.cls-112{clip-path:url(#clip-path-107);}.cls-113{clip-path:url(#clip-path-108);}.cls-114{clip-path:url(#clip-path-109);}.cls-115{clip-path:url(#clip-path-110);}.cls-116{clip-path:url(#clip-path-111);}.cls-117{clip-path:url(#clip-path-112);}.cls-118{clip-path:url(#clip-path-113);}.cls-119{clip-path:url(#clip-path-114);}.cls-120{clip-path:url(#clip-path-115);}.cls-121{clip-path:url(#clip-path-116);}.cls-122{clip-path:url(#clip-path-117);}.cls-123{clip-path:url(#clip-path-118);}.cls-124{clip-path:url(#clip-path-119);}.cls-125{clip-path:url(#clip-path-120);}.cls-126{clip-path:url(#clip-path-121);}.cls-127{clip-path:url(#clip-path-122);}.cls-128{clip-path:url(#clip-path-123);}.cls-129{clip-path:url(#clip-path-124);}.cls-130{clip-path:url(#clip-path-125);}.cls-131{clip-path:url(#clip-path-126);}.cls-132{clip-path:url(#clip-path-127);}.cls-133{clip-path:url(#clip-path-128);}.cls-134{clip-path:url(#clip-path-129);}.cls-135{clip-path:url(#clip-path-130);}.cls-136{clip-path:url(#clip-path-131);}.cls-137{clip-path:url(#clip-path-132);}.cls-138{clip-path:url(#clip-path-133);}.cls-139{clip-path:url(#clip-path-134);}.cls-140{clip-path:url(#clip-path-135);}.cls-141{clip-path:url(#clip-path-136);}.cls-142{clip-path:url(#clip-path-137);}.cls-143{clip-path:url(#clip-path-138);}.cls-144{clip-path:url(#clip-path-139);}.cls-145{clip-path:url(#clip-path-140);}</style><clipPath id="clip-path" transform="translate(-25.63 -40.51)"><path class="cls-1" d="M72.45,46.07l-1.09,1.45a1.49,1.49,0,0,1-.39.34l1.09-1.46A1.31,1.31,0,0,0,72.45,46.07Z"/></clipPath><clipPath id="clip-path-2" transform="translate(-25.63 -40.51)"><path class="cls-1" d="M70.72,48.08l1.09-1.45a1.09,1.09,0,0,1,.25-.23L71,47.86A.75.75,0,0,0,70.72,48.08Z"/></clipPath><clipPath id="clip-path-3" transform="translate(-25.63 -40.51)"><path class="cls-1" d="M69.06,46.37l1.09-1.46a1,1,0,0,0-.18.61,1.71,1.71,0,0,0,.22.75l-1.1,1.45a1.86,1.86,0,0,1-.22-.75A1,1,0,0,1,69.06,46.37Z"/></clipPath><clipPath id="clip-path-4" transform="translate(-25.63 -40.51)"><path class="cls-1" d="M69.93,48.65,68.84,50.1a1.88,1.88,0,0,0,.22-.5,4,4,0,0,0,.18-1.15,1.55,1.55,0,0,0-.15-.73l1.1-1.45a1.56,1.56,0,0,1,.14.73,4,4,0,0,1-.18,1.15A1.6,1.6,0,0,1,69.93,48.65Z"/></clipPath><clipPath id="clip-path-5" transform="translate(-25.63 -40.51)"><path class="cls-1" d="M64.42,46.6l1.1-1.46a1.12,1.12,0,0,0-.21.68,1.41,1.41,0,0,0,.08.44L64.3,47.71a1.19,1.19,0,0,1-.09-.44A1.07,1.07,0,0,1,64.42,46.6Z"/></clipPath><clipPath id="clip-path-6" transform="translate(-25.63 -40.51)"><path class="cls-1" d="M65.6,46.56,64.51,48a.58.58,0,0,1-.21-.31l1.09-1.45A.56.56,0,0,0,65.6,46.56Z"/></clipPath><clipPath id="clip-path-7" transform="translate(-25.63 -40.51)"><path class="cls-1" d="M66.08,47,65,48.49a1.7,1.7,0,0,0-.47-.47l1.09-1.46A2.12,2.12,0,0,1,66.08,47Z"/></clipPath><clipPath id="clip-path-8" transform="translate(-25.63 -40.51)"><path class="cls-1" d="M66.41,48l-1.09,1.45a4.12,4.12,0,0,0-.34-1L66.08,47A4.87,4.87,0,0,1,66.41,48Z"/></clipPath><clipPath id="clip-path-9" transform="translate(-25.63 -40.51)"><path class="cls-1" d="M68,55.19l-1.09,1.45A1.58,1.58,0,0,0,67,56a6.62,6.62,0,0,0-.3-1.53L67.83,53a6.56,6.56,0,0,1,.3,1.52A1.48,1.48,0,0,1,68,55.19Z"/></clipPath><clipPath id="clip-path-10" transform="translate(-25.63 -40.51)"><path class="cls-1" d="M67.94,55.32l-1.09,1.45a.74.74,0,0,0,.08-.13L68,55.19A.41.41,0,0,1,67.94,55.32Z"/></clipPath><clipPath id="clip-path-11" transform="translate(-25.63 -40.51)"><path class="cls-1" d="M68.89,56.57,67.79,58a2,2,0,0,1-1.59.9,1.63,1.63,0,0,1-1.39-.75,2.57,2.57,0,0,1-.41-1.49,2.67,2.67,0,0,1,.27-1.26,1.4,1.4,0,0,1,.12-.18l1.09-1.45a.78.78,0,0,0-.11.18,2.53,2.53,0,0,0-.28,1.26,2.59,2.59,0,0,0,.41,1.49,1.65,1.65,0,0,0,1.39.75A2,2,0,0,0,68.89,56.57Z"/></clipPath><clipPath id="clip-path-12" transform="translate(-25.63 -40.51)"><path class="cls-1" d="M62,46.36l1.1-1.45a3.16,3.16,0,0,0-.4.76l-1.09,1.46A3.43,3.43,0,0,1,62,46.36Z"/></clipPath><clipPath id="clip-path-13" transform="translate(-25.63 -40.51)"><path class="cls-1" d="M62.57,45.88l-1.09,1.45a.73.73,0,0,0,.1-.2l1.09-1.46A.51.51,0,0,1,62.57,45.88Z"/></clipPath><clipPath id="clip-path-14" transform="translate(-25.63 -40.51)"><path class="cls-1" d="M64.58,48.47l-1.1,1.45a1,1,0,0,1-.81.46.68.68,0,0,1-.49-.17,3.17,3.17,0,0,1-.53-.71c-.08-.13-.16-.21-.23-.2a.18.18,0,0,0-.13.06l1.1-1.45a.17.17,0,0,1,.13-.07c.06,0,.14.07.22.21a3.17,3.17,0,0,0,.53.71.75.75,0,0,0,.49.17A1,1,0,0,0,64.58,48.47Z"/></clipPath><clipPath id="clip-path-15" transform="translate(-25.63 -40.51)"><path class="cls-1" d="M58.19,47.08l1.09-1.45a1.23,1.23,0,0,0-.24.76.87.87,0,0,0,.42.78l-1.1,1.45a.88.88,0,0,1-.41-.78A1.19,1.19,0,0,1,58.19,47.08Z"/></clipPath><clipPath id="clip-path-16" transform="translate(-25.63 -40.51)"><path class="cls-1" d="M59.69,47.48,58.6,48.93a.61.61,0,0,0-.24-.31l1.1-1.45A.65.65,0,0,1,59.69,47.48Z"/></clipPath><clipPath id="clip-path-17" transform="translate(-25.63 -40.51)"><path class="cls-1" d="M63,53.81,62,55.27a.81.81,0,0,1-.37.27l1.09-1.45A.78.78,0,0,0,63,53.81Z"/></clipPath><clipPath id="clip-path-18" transform="translate(-25.63 -40.51)"><path class="cls-1" d="M59.58,51.8l-1.09,1.46a1.32,1.32,0,0,0,.09-.42c.06-.58.08-1.68.07-3.28a3,3,0,0,0,0-.63l1.09-1.45a2.31,2.31,0,0,1,.06.63c0,1.6,0,2.69-.08,3.28A1.25,1.25,0,0,1,59.58,51.8Z"/></clipPath><clipPath id="clip-path-19" transform="translate(-25.63 -40.51)"><path class="cls-1" d="M59.44,52l-1.09,1.45a.65.65,0,0,0,.14-.23l1.09-1.46A.77.77,0,0,1,59.44,52Z"/></clipPath><clipPath id="clip-path-20" transform="translate(-25.63 -40.51)"><path class="cls-1" d="M58.19,53.69l1.09-1.45a1.32,1.32,0,0,0-.27.81,1,1,0,0,0,.48.94,3.14,3.14,0,0,0,1.55.3,5.15,5.15,0,0,0,1.63-.2l-1.09,1.45a5.15,5.15,0,0,1-1.63.2,3.11,3.11,0,0,1-1.55-.3,1,1,0,0,1-.48-.94A1.34,1.34,0,0,1,58.19,53.69Z"/></clipPath><clipPath id="clip-path-21" transform="translate(-25.63 -40.51)"><path class="cls-1" d="M58.08,44.09,57,45.54l0,0,1.09-1.46Z"/></clipPath><clipPath id="clip-path-22" transform="translate(-25.63 -40.51)"><path class="cls-1" d="M53.74,47.55l1.1-1.45a.45.45,0,0,1,.36-.2l-1.09,1.45A.45.45,0,0,0,53.74,47.55Z"/></clipPath><clipPath id="clip-path-23" transform="translate(-25.63 -40.51)"><path class="cls-1" d="M51.84,47.18l1.1-1.45a2.64,2.64,0,0,0-.44.85L51.4,48A3.25,3.25,0,0,1,51.84,47.18Z"/></clipPath><clipPath id="clip-path-24" transform="translate(-25.63 -40.51)"><path class="cls-1" d="M55.64,49.38l-1.1,1.45a1,1,0,0,0,.12-.2,2.83,2.83,0,0,0,.17-1.06,5.3,5.3,0,0,0-.2-1.62c-.12-.38-.3-.58-.52-.6L55.2,45.9c.23,0,.4.21.53.6a5.69,5.69,0,0,1,.19,1.62,2.64,2.64,0,0,1-.17,1.06A1.8,1.8,0,0,1,55.64,49.38Z"/></clipPath><clipPath id="clip-path-25" transform="translate(-25.63 -40.51)"><path class="cls-1" d="M57.44,49.7l-1.1,1.45a3,3,0,0,1-.85.78,2.79,2.79,0,0,1-1.44.4,1.65,1.65,0,0,1-.38,0l1.1-1.45a1.5,1.5,0,0,0,.37.05,2.77,2.77,0,0,0,1.44-.41A3,3,0,0,0,57.44,49.7Z"/></clipPath><clipPath id="clip-path-26" transform="translate(-25.63 -40.51)"><path class="cls-1" d="M53.23,52.36l1.09-1.45a.24.24,0,0,1,.21-.1,1.15,1.15,0,0,1,.24,0l-1.1,1.45-.23,0A.24.24,0,0,0,53.23,52.36Z"/></clipPath><clipPath id="clip-path-27" transform="translate(-25.63 -40.51)"><path class="cls-1" d="M53,50.54,51.93,52a.3.3,0,0,0,0-.15.86.86,0,0,0-.18-.4,4,4,0,0,1-.61-2.16A3.69,3.69,0,0,1,51.4,48l1.1-1.45a3.26,3.26,0,0,0-.21,1.25,3.84,3.84,0,0,0,.6,2.15.88.88,0,0,1,.18.41A.23.23,0,0,1,53,50.54Z"/></clipPath><clipPath id="clip-path-28" transform="translate(-25.63 -40.51)"><path class="cls-1" d="M51.57,52.37l1.09-1.46a2.52,2.52,0,0,0-.28.49l-1.09,1.45A2,2,0,0,1,51.57,52.37Z"/></clipPath><clipPath id="clip-path-29" transform="translate(-25.63 -40.51)"><path class="cls-1" d="M56.2,55.93l-1.09,1.45a.91.91,0,0,0,.17-.56.69.69,0,0,0-.12-.41.34.34,0,0,0-.3-.17l-.27,0,1.09-1.45.27,0a.34.34,0,0,1,.3.17.69.69,0,0,1,.12.41A.87.87,0,0,1,56.2,55.93Z"/></clipPath><clipPath id="clip-path-30" transform="translate(-25.63 -40.51)"><path class="cls-1" d="M55.68,54.82l-1.09,1.45a2.37,2.37,0,0,1-.72.1,3.45,3.45,0,0,1-.57,0l1.1-1.45a3.43,3.43,0,0,0,.56.05A2.66,2.66,0,0,0,55.68,54.82Z"/></clipPath><clipPath id="clip-path-31" transform="translate(-25.63 -40.51)"><path class="cls-1" d="M52.64,53.72l-1.1,1.45a2.33,2.33,0,0,1-.47-1.36,2.3,2.3,0,0,1,.22-1l1.09-1.45a2.3,2.3,0,0,0-.22,1A2.28,2.28,0,0,0,52.64,53.72Z"/></clipPath><clipPath id="clip-path-32" transform="translate(-25.63 -40.51)"><path class="cls-1" d="M54.4,54.87l-1.1,1.45a1.33,1.33,0,0,1-.33-.08l1.09-1.45A1.31,1.31,0,0,0,54.4,54.87Z"/></clipPath><clipPath id="clip-path-33" transform="translate(-25.63 -40.51)"><path class="cls-1" d="M52.79,56.27l1.1-1.45a.1.1,0,0,1,.09,0l-1.09,1.45A.13.13,0,0,0,52.79,56.27Z"/></clipPath><clipPath id="clip-path-34" transform="translate(-25.63 -40.51)"><path class="cls-1" d="M52.73,54.17l-1.1,1.45a.22.22,0,0,0,.06-.14.7.7,0,0,0-.15-.31l1.1-1.45a.63.63,0,0,1,.14.3A.3.3,0,0,1,52.73,54.17Z"/></clipPath><clipPath id="clip-path-35" transform="translate(-25.63 -40.51)"><path class="cls-1" d="M51.37,55.88l1.09-1.45a1.49,1.49,0,0,0-.17.31L51.2,56.19A1.14,1.14,0,0,1,51.37,55.88Z"/></clipPath><clipPath id="clip-path-36" transform="translate(-25.63 -40.51)"><path class="cls-1" d="M53,57.31l-1.1,1.45a2.31,2.31,0,0,1-.59-.82,2.86,2.86,0,0,1-.22-1,2,2,0,0,1,.12-.7l1.09-1.45a2,2,0,0,0-.11.7,2.5,2.5,0,0,0,.22,1.05A2.09,2.09,0,0,0,53,57.31Z"/></clipPath><clipPath id="clip-path-37" transform="translate(-25.63 -40.51)"><path class="cls-1" d="M57.94,56.62l-1.09,1.45a3.22,3.22,0,0,1-1.08.93,3.81,3.81,0,0,1-1.79.42,3.21,3.21,0,0,1-2.09-.66L53,57.31a3.13,3.13,0,0,0,2.09.65,3.58,3.58,0,0,0,1.78-.42A3.2,3.2,0,0,0,57.94,56.62Z"/></clipPath><clipPath id="clip-path-38" transform="translate(-25.63 -40.51)"><path class="cls-1" d="M47.74,46l-1.09,1.45a1.43,1.43,0,0,0,.14-.28,3.26,3.26,0,0,1,.35-.62l1.09-1.45a2.78,2.78,0,0,0-.34.62A1.17,1.17,0,0,1,47.74,46Z"/></clipPath><clipPath id="clip-path-39" transform="translate(-25.63 -40.51)"><path class="cls-1" d="M43.25,47.4,44.35,46a.91.91,0,0,0-.19.63.87.87,0,0,0,.25.64l-1.09,1.45a.88.88,0,0,1-.26-.64A1,1,0,0,1,43.25,47.4Z"/></clipPath><clipPath id="clip-path-40" transform="translate(-25.63 -40.51)"><path class="cls-1" d="M44.76,47.73l-1.1,1.45a1.38,1.38,0,0,0-.34-.51l1.09-1.45A1.49,1.49,0,0,1,44.76,47.73Z"/></clipPath><clipPath id="clip-path-41" transform="translate(-25.63 -40.51)"><path class="cls-1" d="M51.7,53.85,50.61,55.3a1,1,0,0,1-.26.23l1.09-1.46A.8.8,0,0,0,51.7,53.85Z"/></clipPath><clipPath id="clip-path-42" transform="translate(-25.63 -40.51)"><path class="cls-1" d="M46.56,49l1.1-1.45a.5.5,0,0,1,.41-.2c.27,0,.45.17.55.52a7.33,7.33,0,0,1,.2,2,8.42,8.42,0,0,1-.22,2.72L47.51,54a8.5,8.5,0,0,0,.22-2.73,7.33,7.33,0,0,0-.2-2c-.1-.35-.28-.52-.55-.52A.5.5,0,0,0,46.56,49Z"/></clipPath><clipPath id="clip-path-43" transform="translate(-25.63 -40.51)"><path class="cls-1" d="M48.37,53l-1.09,1.46a3.77,3.77,0,0,1,.23-.45l1.09-1.46C48.48,52.82,48.4,53,48.37,53Z"/></clipPath><clipPath id="clip-path-44" transform="translate(-25.63 -40.51)"><path class="cls-1" d="M51.44,54.07l-1.09,1.46a3.84,3.84,0,0,1-1.63.25,1.93,1.93,0,0,1-1.13-.23l1.09-1.45a2.1,2.1,0,0,0,1.13.23A3.6,3.6,0,0,0,51.44,54.07Z"/></clipPath><clipPath id="clip-path-45" transform="translate(-25.63 -40.51)"><path class="cls-1" d="M48.68,54.1l-1.09,1.45a.89.89,0,0,1-.34-.79,1,1,0,0,1,0-.28L48.37,53a1.12,1.12,0,0,0,0,.29A.89.89,0,0,0,48.68,54.1Z"/></clipPath><clipPath id="clip-path-46" transform="translate(-25.63 -40.51)"><path class="cls-1" d="M47.63,53.83l-1.09,1.45a.89.89,0,0,1-.29.25l1.1-1.45A1,1,0,0,0,47.63,53.83Z"/></clipPath><clipPath id="clip-path-47" transform="translate(-25.63 -40.51)"><path class="cls-1" d="M44.56,52.5,43.47,54a1,1,0,0,0,.16-.39c0-.15,0-.55.07-1.17s0-1.52,0-2.33a3.32,3.32,0,0,0-.07-.88l1.1-1.45a4,4,0,0,1,.06.88c0,.81,0,1.59,0,2.33s0,1-.08,1.17A.85.85,0,0,1,44.56,52.5Z"/></clipPath><clipPath id="clip-path-48" transform="translate(-25.63 -40.51)"><path class="cls-1" d="M43.37,54.07l1.09-1.45a1.43,1.43,0,0,0-.16.27l-1.09,1.45A1.83,1.83,0,0,1,43.37,54.07Z"/></clipPath><clipPath id="clip-path-49" transform="translate(-25.63 -40.51)"><path class="cls-1" d="M47.35,54.08l-1.1,1.45a3.07,3.07,0,0,1-1.48.28c-1.07,0-1.6-.37-1.61-1.12a1,1,0,0,1,.05-.35l1.09-1.45a1,1,0,0,0,0,.35c0,.74.53,1.12,1.6,1.12A3.27,3.27,0,0,0,47.35,54.08Z"/></clipPath><clipPath id="clip-path-50" transform="translate(-25.63 -40.51)"><path class="cls-1" d="M39.13,46.73l1.09-1.45a.85.85,0,0,0-.16.54.94.94,0,0,0,.33.74L39.29,48a1,1,0,0,1-.32-.74A.87.87,0,0,1,39.13,46.73Z"/></clipPath><clipPath id="clip-path-51" transform="translate(-25.63 -40.51)"><path class="cls-1" d="M40.61,46.82l-1.09,1.45a1.58,1.58,0,0,0-.23-.26l1.1-1.45A1.44,1.44,0,0,1,40.61,46.82Z"/></clipPath><clipPath id="clip-path-52" transform="translate(-25.63 -40.51)"><path class="cls-1" d="M40.69,47.18,39.6,48.63a1.14,1.14,0,0,0-.08-.36l1.09-1.45A.91.91,0,0,1,40.69,47.18Z"/></clipPath><clipPath id="clip-path-53" transform="translate(-25.63 -40.51)"><path class="cls-1" d="M35.23,46.75l1.09-1.45a1.11,1.11,0,0,0-.18.65.75.75,0,0,0,.06.33l-1.09,1.45a.61.61,0,0,1-.07-.32A1.05,1.05,0,0,1,35.23,46.75Z"/></clipPath><clipPath id="clip-path-54" transform="translate(-25.63 -40.51)"><path class="cls-1" d="M36.48,46.59,35.39,48a1,1,0,0,1-.28-.31l1.09-1.45A1.39,1.39,0,0,0,36.48,46.59Z"/></clipPath><clipPath id="clip-path-55" transform="translate(-25.63 -40.51)"><path class="cls-1" d="M36.82,47.2l-1.1,1.45a1.17,1.17,0,0,0-.33-.61l1.09-1.45A1.21,1.21,0,0,1,36.82,47.2Z"/></clipPath><clipPath id="clip-path-56" transform="translate(-25.63 -40.51)"><path class="cls-1" d="M40.65,51.44l-1.09,1.45a10.27,10.27,0,0,0,.11-2.08c0-1.06,0-1.79-.07-2.18l1.09-1.45c0,.39.07,1.11.08,2.18A10.87,10.87,0,0,1,40.65,51.44Z"/></clipPath><clipPath id="clip-path-57" transform="translate(-25.63 -40.51)"><path class="cls-1" d="M36.91,48.88l-1.09,1.46v-.45a6,6,0,0,0-.1-1.24l1.1-1.45a7,7,0,0,1,.09,1.23Z"/></clipPath><clipPath id="clip-path-58" transform="translate(-25.63 -40.51)"><path class="cls-1" d="M40.5,51.76l-1.09,1.45a1.35,1.35,0,0,0,.15-.32l1.09-1.45A.86.86,0,0,1,40.5,51.76Z"/></clipPath><clipPath id="clip-path-59" transform="translate(-25.63 -40.51)"><path class="cls-1" d="M41,54.27l-1.09,1.45a.65.65,0,0,1-.12-.42c0-.4-.09-.61-.22-.61l1.09-1.45c.13,0,.2.21.22.6A.76.76,0,0,0,41,54.27Z"/></clipPath><clipPath id="clip-path-60" transform="translate(-25.63 -40.51)"><path class="cls-1" d="M43.72,53.41l-1.09,1.46a2.25,2.25,0,0,1-1,.66,3.86,3.86,0,0,1-1.4.29.5.5,0,0,1-.38-.1L41,54.27a.54.54,0,0,0,.38.1,3.82,3.82,0,0,0,1.4-.29A2.18,2.18,0,0,0,43.72,53.41Z"/></clipPath><clipPath id="clip-path-61" transform="translate(-25.63 -40.51)"><path class="cls-1" d="M40.48,53.3l-1.09,1.45a4.39,4.39,0,0,0-.35.4,1.69,1.69,0,0,1-1.25.68,1.6,1.6,0,0,1-1.57-1.08,8.2,8.2,0,0,1-.4-3c0-.53,0-1,0-1.36l1.09-1.46v1.37a8.65,8.65,0,0,0,.4,3,1.58,1.58,0,0,0,1.57,1.07,1.63,1.63,0,0,0,1.25-.68C40.33,53.47,40.44,53.33,40.48,53.3Z"/></clipPath><clipPath id="clip-path-62" transform="translate(-25.63 -40.51)"><path class="cls-1" d="M35.64,42.75,34.55,44.2a1.21,1.21,0,0,1-.16.16l1.09-1.45A1.21,1.21,0,0,0,35.64,42.75Z"/></clipPath><clipPath id="clip-path-63" transform="translate(-25.63 -40.51)"><path class="cls-1" d="M34.18,44.57l1.1-1.45a1.29,1.29,0,0,1,.2-.21l-1.09,1.45A1,1,0,0,0,34.18,44.57Z"/></clipPath><clipPath id="clip-path-64" transform="translate(-25.63 -40.51)"><path class="cls-1" d="M30.79,42.69l1.1-1.45a.78.78,0,0,0-.1.15,1.48,1.48,0,0,0-.18.72,1.19,1.19,0,0,0,.08.46L30.6,44a1.15,1.15,0,0,1-.08-.46,1.48,1.48,0,0,1,.18-.72Z"/></clipPath><clipPath id="clip-path-65" transform="translate(-25.63 -40.51)"><path class="cls-1" d="M32,43l-1.09,1.45A1.54,1.54,0,0,1,30.6,44l1.09-1.45A1.76,1.76,0,0,0,32,43Z"/></clipPath><clipPath id="clip-path-66" transform="translate(-25.63 -40.51)"><path class="cls-1" d="M32.3,43.67l-1.09,1.46a1.18,1.18,0,0,0-.27-.7L32,43A1.11,1.11,0,0,1,32.3,43.67Z"/></clipPath><clipPath id="clip-path-67" transform="translate(-25.63 -40.51)"><path class="cls-1" d="M30.81,42.74l-1.09,1.45a2.32,2.32,0,0,1-.22.25L30.59,43A2.32,2.32,0,0,0,30.81,42.74Z"/></clipPath><clipPath id="clip-path-68" transform="translate(-25.63 -40.51)"><path class="cls-1" d="M29.43,44.52l1.09-1.45.07-.08L29.5,44.44A.27.27,0,0,0,29.43,44.52Z"/></clipPath><clipPath id="clip-path-69" transform="translate(-25.63 -40.51)"><path class="cls-1" d="M32.29,46l-1.1,1.45a.82.82,0,0,0,.1-.48,13.84,13.84,0,0,0-.08-1.79l1.09-1.46a12.37,12.37,0,0,1,.08,1.79A.94.94,0,0,1,32.29,46Z"/></clipPath><clipPath id="clip-path-70" transform="translate(-25.63 -40.51)"><path class="cls-1" d="M25.9,43,27,41.51a1.31,1.31,0,0,0-.25.79.77.77,0,0,0,.27.61l-1.09,1.45a.71.71,0,0,1-.27-.61A1.24,1.24,0,0,1,25.9,43Z"/></clipPath><clipPath id="clip-path-71" transform="translate(-25.63 -40.51)"><path class="cls-1" d="M29.28,50.12l1.09-1.45.05,0-1.1,1.45Z"/></clipPath><clipPath id="clip-path-72" transform="translate(-25.63 -40.51)"><path class="cls-1" d="M32.31,51.34l-1.09,1.45a18.83,18.83,0,0,0,.09-2,1.57,1.57,0,0,0-.12-.76c-.07-.1-.25-.14-.55-.14a2.76,2.76,0,0,0-1.32.2l1.1-1.45a2.59,2.59,0,0,1,1.31-.2c.31,0,.49,0,.56.14a1.61,1.61,0,0,1,.11.76A19,19,0,0,1,32.31,51.34Z"/></clipPath><clipPath id="clip-path-73" transform="translate(-25.63 -40.51)"><path class="cls-1" d="M35.58,53.79l-1.1,1.45a1,1,0,0,1-.28.26L35.29,54A1.16,1.16,0,0,0,35.58,53.79Z"/></clipPath><clipPath id="clip-path-74" transform="translate(-25.63 -40.51)"><path class="cls-1" d="M32.19,51.92l-1.1,1.45a3,3,0,0,0,.13-.58l1.09-1.45A4.53,4.53,0,0,1,32.19,51.92Z"/></clipPath><clipPath id="clip-path-75" transform="translate(-25.63 -40.51)"><path class="cls-1" d="M32.09,52.08,31,53.53a.89.89,0,0,0,.09-.16l1.1-1.45A.59.59,0,0,1,32.09,52.08Z"/></clipPath><clipPath id="clip-path-76" transform="translate(-25.63 -40.51)"><path class="cls-1" d="M30.75,53.8l1.09-1.45a1.28,1.28,0,0,0-.22.75,1.12,1.12,0,0,0,.46,1,2.66,2.66,0,0,0,1.52.33A3.18,3.18,0,0,0,35.29,54L34.2,55.5a3.29,3.29,0,0,1-1.69.34A2.64,2.64,0,0,1,31,55.51a1.1,1.1,0,0,1-.46-1A1.21,1.21,0,0,1,30.75,53.8Z"/></clipPath><clipPath id="clip-path-77" transform="translate(-25.63 -40.51)"><path class="cls-1" d="M27.44,51.78l-1.09,1.45a4.34,4.34,0,0,0,.1-.72c.05-.75.08-1.75.07-3,0-.22,0-.49,0-.81,0-1.55,0-2.44,0-2.67A3.79,3.79,0,0,0,26.39,45a1.64,1.64,0,0,0-.47-.6L27,42.91a1.63,1.63,0,0,1,.47.59,3.87,3.87,0,0,1,.08,1.1c0,.23,0,1.12,0,2.67,0,.32,0,.59,0,.81,0,1.23,0,2.22-.08,3A3.46,3.46,0,0,1,27.44,51.78Z"/></clipPath><clipPath id="clip-path-78" transform="translate(-25.63 -40.51)"><path class="cls-1" d="M30.75,53.75,29.66,55.2a1.54,1.54,0,0,1-.32.3l1.09-1.45A1.32,1.32,0,0,0,30.75,53.75Z"/></clipPath><clipPath id="clip-path-79" transform="translate(-25.63 -40.51)"><path class="cls-1" d="M27.33,52l-1.1,1.45a.84.84,0,0,0,.12-.23l1.09-1.45A.61.61,0,0,1,27.33,52Z"/></clipPath><clipPath id="clip-path-80" transform="translate(-25.63 -40.51)"><path class="cls-1" d="M25.78,53.94l1.09-1.45a.24.24,0,0,0-.06.09L25.71,54A.36.36,0,0,1,25.78,53.94Z"/></clipPath><clipPath id="clip-path-81" transform="translate(-25.63 -40.51)"><path class="cls-1" d="M26.87,53.67l-1.1,1.45a1.28,1.28,0,0,1-.14-.59,1.24,1.24,0,0,1,.08-.49l1.1-1.46a1.15,1.15,0,0,0-.09.5A1.32,1.32,0,0,0,26.87,53.67Z"/></clipPath><clipPath id="clip-path-82" transform="translate(-25.63 -40.51)"><path class="cls-1" d="M30.43,54.05,29.34,55.5a3.08,3.08,0,0,1-1.6.36,3.1,3.1,0,0,1-1.55-.32,1.13,1.13,0,0,1-.42-.42l1.1-1.45a1,1,0,0,0,.41.41,3.1,3.1,0,0,0,1.55.33A3.08,3.08,0,0,0,30.43,54.05Z"/></clipPath><clipPath id="clip-path-83" transform="translate(-25.63 -40.51)"><path class="cls-1" d="M122.16,45.65l-1.09,1.46a1,1,0,0,0,.1-.21,3.34,3.34,0,0,1,.39-.76l1.1-1.45a3,3,0,0,0-.4.76A.73.73,0,0,1,122.16,45.65Z"/></clipPath><clipPath id="clip-path-84" transform="translate(-25.63 -40.51)"><path class="cls-1" d="M120.88,49.14,122,47.69a.16.16,0,0,1,.13-.07c.07,0,.14.07.23.21a3.09,3.09,0,0,0,.52.7L121.76,50a3.52,3.52,0,0,1-.53-.71c-.08-.14-.15-.21-.22-.21A.15.15,0,0,0,120.88,49.14Z"/></clipPath><clipPath id="clip-path-85" transform="translate(-25.63 -40.51)"><path class="cls-1" d="M124.15,48.26l-1.09,1.45a1,1,0,0,1-.81.45.75.75,0,0,1-.49-.17l1.09-1.46a.72.72,0,0,0,.5.17A1,1,0,0,0,124.15,48.26Z"/></clipPath><clipPath id="clip-path-86" transform="translate(-25.63 -40.51)"><path class="cls-1" d="M117.78,46.85l1.09-1.45a1.26,1.26,0,0,0-.24.77.87.87,0,0,0,.42.78L118,48.4a.86.86,0,0,1-.41-.78A1.2,1.2,0,0,1,117.78,46.85Z"/></clipPath><clipPath id="clip-path-87" transform="translate(-25.63 -40.51)"><path class="cls-1" d="M119.27,47.25l-1.09,1.45a.61.61,0,0,0-.23-.3l1.1-1.45A.54.54,0,0,1,119.27,47.25Z"/></clipPath><clipPath id="clip-path-88" transform="translate(-25.63 -40.51)"><path class="cls-1" d="M119.25,51.17l-1.09,1.45c.06-.59.09-1.69.09-3.29a2,2,0,0,0-.07-.63l1.09-1.45a1.94,1.94,0,0,1,.07.63A31.81,31.81,0,0,1,119.25,51.17Z"/></clipPath><clipPath id="clip-path-89" transform="translate(-25.63 -40.51)"><path class="cls-1" d="M122.62,53.6l-1.1,1.45a.64.64,0,0,1-.35.26l1.09-1.45A.72.72,0,0,0,122.62,53.6Z"/></clipPath><clipPath id="clip-path-90" transform="translate(-25.63 -40.51)"><path class="cls-1" d="M119.18,51.58,118.08,53a1.29,1.29,0,0,0,.08-.41l1.09-1.45A1.32,1.32,0,0,1,119.18,51.58Z"/></clipPath><clipPath id="clip-path-91" transform="translate(-25.63 -40.51)"><path class="cls-1" d="M119,51.81,118,53.26a1.1,1.1,0,0,0,.13-.23l1.1-1.45Z"/></clipPath><clipPath id="clip-path-92" transform="translate(-25.63 -40.51)"><path class="cls-1" d="M117.78,53.47,118.87,52a1.27,1.27,0,0,0-.26.81,1,1,0,0,0,.47,1,3.24,3.24,0,0,0,1.56.3,5,5,0,0,0,1.62-.21l-1.09,1.45a4.83,4.83,0,0,1-1.63.21,3.3,3.3,0,0,1-1.56-.3,1,1,0,0,1-.47-.94A1.26,1.26,0,0,1,117.78,53.47Z"/></clipPath><clipPath id="clip-path-93" transform="translate(-25.63 -40.51)"><path class="cls-1" d="M116,47.58,114.93,49a.8.8,0,0,0,.11-.46,1.93,1.93,0,0,0-.18-.86.53.53,0,0,0-.47-.32.44.44,0,0,0-.38.2l1.09-1.45a.46.46,0,0,1,.38-.21.54.54,0,0,1,.47.33,1.8,1.8,0,0,1,.18.86A.7.7,0,0,1,116,47.58Z"/></clipPath><clipPath id="clip-path-94" transform="translate(-25.63 -40.51)"><path class="cls-1" d="M118,49.36l-1.09,1.45a.33.33,0,0,1-.28.16l1.09-1.45A.36.36,0,0,0,118,49.36Z"/></clipPath><clipPath id="clip-path-95" transform="translate(-25.63 -40.51)"><path class="cls-1" d="M113.81,51l1.1-1.45a.15.15,0,0,1,.13-.06L113.94,51A.16.16,0,0,0,113.81,51Z"/></clipPath><clipPath id="clip-path-96" transform="translate(-25.63 -40.51)"><path class="cls-1" d="M117.58,53l-1.09,1.45,0,0a2.65,2.65,0,0,1-2.12,1.16,2.42,2.42,0,0,1-2-1.18,5.27,5.27,0,0,1-.66-1.41,7.64,7.64,0,0,1-.35-2.31,6.89,6.89,0,0,1,.58-2.94,4.57,4.57,0,0,1,.56-1l1.09-1.46a4.83,4.83,0,0,0-.56,1,7.13,7.13,0,0,0-.58,3,7.64,7.64,0,0,0,.35,2.31,5.28,5.28,0,0,0,.67,1.41,2.41,2.41,0,0,0,2,1.18A2.65,2.65,0,0,0,117.56,53Z"/></clipPath><clipPath id="clip-path-97" transform="translate(-25.63 -40.51)"><path class="cls-1" d="M112,46.17l-1.09,1.45a.29.29,0,0,1-.26.11l1.1-1.45A.28.28,0,0,0,112,46.17Z"/></clipPath><clipPath id="clip-path-98" transform="translate(-25.63 -40.51)"><path class="cls-1" d="M109.4,47.83l1.09-1.45a.27.27,0,0,1,.22-.09l-1.09,1.45A.24.24,0,0,0,109.4,47.83Z"/></clipPath><clipPath id="clip-path-99" transform="translate(-25.63 -40.51)"><path class="cls-1" d="M105.72,46.24l1.09-1.45a.7.7,0,0,0-.12.4l-1.09,1.46A.71.71,0,0,1,105.72,46.24Z"/></clipPath><clipPath id="clip-path-100" transform="translate(-25.63 -40.51)"><path class="cls-1" d="M107.75,46.48l-1.09,1.45a.78.78,0,0,0,0-.28l1.09-1.45A.7.7,0,0,1,107.75,46.48Z"/></clipPath><clipPath id="clip-path-101" transform="translate(-25.63 -40.51)"><path class="cls-1" d="M106.74,46.06l-1.09,1.45a1.21,1.21,0,0,1-.05-.43l1.1-1.45A1.73,1.73,0,0,0,106.74,46.06Z"/></clipPath><clipPath id="clip-path-102" transform="translate(-25.63 -40.51)"><path class="cls-1" d="M107,46.15l-1.09,1.45a.24.24,0,0,1-.22-.09l1.09-1.45A.24.24,0,0,0,107,46.15Z"/></clipPath><clipPath id="clip-path-103" transform="translate(-25.63 -40.51)"><path class="cls-1" d="M111.71,53.13l-1.09,1.45a2.3,2.3,0,0,1-1.88,1,1.69,1.69,0,0,1-1.49-.87,4.3,4.3,0,0,1-.57-2.32L107.77,51a4.35,4.35,0,0,0,.57,2.32,1.69,1.69,0,0,0,1.49.88A2.32,2.32,0,0,0,111.71,53.13Z"/></clipPath><clipPath id="clip-path-104" transform="translate(-25.63 -40.51)"><path class="cls-1" d="M106.24,47.44l-1.09,1.45a.44.44,0,0,1-.37.21.51.51,0,0,1-.36-.17,5.4,5.4,0,0,1-.5-.73c-.26-.4-.46-.6-.63-.6a.27.27,0,0,0-.23.14l1.09-1.46a.3.3,0,0,1,.24-.13c.16,0,.37.19.62.6a5.81,5.81,0,0,0,.51.72.46.46,0,0,0,.36.17A.45.45,0,0,0,106.24,47.44Z"/></clipPath><clipPath id="clip-path-105" transform="translate(-25.63 -40.51)"><path class="cls-1" d="M105.82,53.37l-1.1,1.46,0,0,1.09-1.45Z"/></clipPath><clipPath id="clip-path-106" transform="translate(-25.63 -40.51)"><path class="cls-1" d="M101.2,46.4,102.3,45a2.55,2.55,0,0,0-.3.49,4.28,4.28,0,0,0-.42,2,4.17,4.17,0,0,0,.43,1.88,4.92,4.92,0,0,0,1.34,1.58,1,1,0,0,1,.45.8.89.89,0,0,1-.11.46l-1.09,1.45a.89.89,0,0,0,.11-.46,1.07,1.07,0,0,0-.45-.8,5.18,5.18,0,0,1-1.35-1.57,4.71,4.71,0,0,1,0-3.89A3.17,3.17,0,0,1,101.2,46.4Z"/></clipPath><clipPath id="clip-path-107" transform="translate(-25.63 -40.51)"><path class="cls-1" d="M105.79,53.4l-1.09,1.45a1.79,1.79,0,0,1-1.48.79,4.2,4.2,0,0,1-.82-.12l1.09-1.45a4.2,4.2,0,0,0,.82.12A1.79,1.79,0,0,0,105.79,53.4Z"/></clipPath><clipPath id="clip-path-108" transform="translate(-25.63 -40.51)"><path class="cls-1" d="M103.49,54.07l-1.09,1.45-.63-.11L102.86,54Z"/></clipPath><clipPath id="clip-path-109" transform="translate(-25.63 -40.51)"><path class="cls-1" d="M100.44,52l1.09-1.45a1.32,1.32,0,0,0-.16.77,5.17,5.17,0,0,0,.21,1.33A4.13,4.13,0,0,0,102,53.8l-1.1,1.46a4.64,4.64,0,0,1-.43-1.14,5.17,5.17,0,0,1-.21-1.33A1.24,1.24,0,0,1,100.44,52Z"/></clipPath><clipPath id="clip-path-110" transform="translate(-25.63 -40.51)"><path class="cls-1" d="M102.69,54l-1.09,1.45-.24,0a.53.53,0,0,1-.44-.23L102,53.8a.5.5,0,0,0,.43.24A1,1,0,0,0,102.69,54Z"/></clipPath><clipPath id="clip-path-111" transform="translate(-25.63 -40.51)"><path class="cls-1" d="M96.26,46.35l1.1-1.45a2.8,2.8,0,0,0-.35.62L95.92,47A3.26,3.26,0,0,1,96.26,46.35Z"/></clipPath><clipPath id="clip-path-112" transform="translate(-25.63 -40.51)"><path class="cls-1" d="M96.87,45.8l-1.09,1.45a1.45,1.45,0,0,0,.14-.28L97,45.52A1,1,0,0,1,96.87,45.8Z"/></clipPath><clipPath id="clip-path-113" transform="translate(-25.63 -40.51)"><path class="cls-1" d="M92.37,47.24l1.1-1.45a1,1,0,0,0-.19.61,1,1,0,0,0,.26.63l-1.09,1.46a.88.88,0,0,1-.26-.64A1,1,0,0,1,92.37,47.24Z"/></clipPath><clipPath id="clip-path-114" transform="translate(-25.63 -40.51)"><path class="cls-1" d="M93.89,47.55,92.8,49a1.54,1.54,0,0,0-.35-.51L93.54,47A1.51,1.51,0,0,1,93.89,47.55Z"/></clipPath><clipPath id="clip-path-115" transform="translate(-25.63 -40.51)"><path class="cls-1" d="M100.83,53.66l-1.09,1.45a1,1,0,0,1-.26.23l1.09-1.45A.73.73,0,0,0,100.83,53.66Z"/></clipPath><clipPath id="clip-path-116" transform="translate(-25.63 -40.51)"><path class="cls-1" d="M95.69,48.81l1.1-1.45a.46.46,0,0,1,.41-.2c.27,0,.46.16.56.51a7.91,7.91,0,0,1,.19,2,8.6,8.6,0,0,1-.21,2.73,3.07,3.07,0,0,0-.23.45.71.71,0,0,0,0,.29.89.89,0,0,0,.35.79,2,2,0,0,0,1.12.23,4,4,0,0,0,1.63-.26l-1.09,1.45a3.81,3.81,0,0,1-1.63.26,2.1,2.1,0,0,1-1.13-.23.91.91,0,0,1-.34-.79,1,1,0,0,1,0-.29c0-.06.1-.21.23-.45a8.45,8.45,0,0,0,.22-2.73,8.26,8.26,0,0,0-.19-2c-.1-.35-.29-.52-.56-.52A.5.5,0,0,0,95.69,48.81Z"/></clipPath><clipPath id="clip-path-117" transform="translate(-25.63 -40.51)"><path class="cls-1" d="M96.77,53.64l-1.1,1.45a.92.92,0,0,1-.29.26l1.1-1.45A1.45,1.45,0,0,0,96.77,53.64Z"/></clipPath><clipPath id="clip-path-118" transform="translate(-25.63 -40.51)"><path class="cls-1" d="M93.7,52.32l-1.1,1.45a.76.76,0,0,0,.16-.39,8.69,8.69,0,0,0,.07-1.17c0-.74,0-1.52,0-2.33A4.46,4.46,0,0,0,92.8,49l1.09-1.45a3.77,3.77,0,0,1,.07.88c0,.81,0,1.59,0,2.33s0,1-.06,1.17A1,1,0,0,1,93.7,52.32Z"/></clipPath><clipPath id="clip-path-119" transform="translate(-25.63 -40.51)"><path class="cls-1" d="M92.49,53.92l1.09-1.46a1.09,1.09,0,0,0-.14.24l-1.1,1.45A.73.73,0,0,1,92.49,53.92Z"/></clipPath><clipPath id="clip-path-120" transform="translate(-25.63 -40.51)"><path class="cls-1" d="M96.48,53.9l-1.1,1.45a3.07,3.07,0,0,1-1.47.27c-1.07,0-1.61-.37-1.62-1.12a1.08,1.08,0,0,1,0-.35l1.1-1.45a.7.7,0,0,0,0,.35c0,.75.54,1.13,1.61,1.12A3.12,3.12,0,0,0,96.48,53.9Z"/></clipPath><clipPath id="clip-path-121" transform="translate(-25.63 -40.51)"><path class="cls-1" d="M88,48.15l1.09-1.45a.39.39,0,0,1,.32-.17L88.29,48A.4.4,0,0,0,88,48.15Z"/></clipPath><clipPath id="clip-path-122" transform="translate(-25.63 -40.51)"><path class="cls-1" d="M91.9,52.77l-1.1,1.45,0,.06,1.09-1.46Z"/></clipPath><clipPath id="clip-path-123" transform="translate(-25.63 -40.51)"><path class="cls-1" d="M90.19,51.7l-1.1,1.45a1.64,1.64,0,0,0,.2-.94,14.76,14.76,0,0,0-.15-1.86,10,10,0,0,0-.32-1.69c-.13-.45-.3-.67-.53-.68l1.09-1.45c.23,0,.41.23.53.68a11,11,0,0,1,.33,1.69,14.6,14.6,0,0,1,.14,1.86A1.65,1.65,0,0,1,90.19,51.7Z"/></clipPath><clipPath id="clip-path-124" transform="translate(-25.63 -40.51)"><path class="cls-1" d="M86.32,47.07l1.09-1.45-.15.21a6.33,6.33,0,0,0-1,3.76,6.14,6.14,0,0,0,.84,3.34,2.6,2.6,0,0,0,2.25,1.32,3.13,3.13,0,0,0,2.5-1.43l-1.09,1.46a3.14,3.14,0,0,1-2.5,1.42A2.6,2.6,0,0,1,86,54.38,6.05,6.05,0,0,1,85.17,51a6.33,6.33,0,0,1,1-3.76Z"/></clipPath><clipPath id="clip-path-125" transform="translate(-25.63 -40.51)"><path class="cls-1" d="M84.41,44.11l1.09-1.45,0,0-1.09,1.45Z"/></clipPath><clipPath id="clip-path-126" transform="translate(-25.63 -40.51)"><path class="cls-1" d="M81.79,42.43,82.88,41a4.38,4.38,0,0,0-.52,1.27l-1.09,1.45A3.92,3.92,0,0,1,81.79,42.43Z"/></clipPath><clipPath id="clip-path-127" transform="translate(-25.63 -40.51)"><path class="cls-1" d="M82.17,42.91l-1.1,1.45c.11-.34.17-.56.2-.67l1.09-1.45C82.33,42.34,82.27,42.57,82.17,42.91Z"/></clipPath><clipPath id="clip-path-128" transform="translate(-25.63 -40.51)"><path class="cls-1" d="M81.16,46.14l-1.09,1.45a3.86,3.86,0,0,0,.2-.54l1.1-1.45A2.74,2.74,0,0,1,81.16,46.14Z"/></clipPath><clipPath id="clip-path-129" transform="translate(-25.63 -40.51)"><path class="cls-1" d="M81.14,46.17l-1.09,1.45,0,0,1.09-1.45Z"/></clipPath><clipPath id="clip-path-130" transform="translate(-25.63 -40.51)"><path class="cls-1" d="M74.9,42.56,76,41.11l-.09.13a1.46,1.46,0,0,0-.15.63,1.06,1.06,0,0,0,.42.86l-1.09,1.45a1,1,0,0,1-.42-.85,1.28,1.28,0,0,1,.15-.63C74.85,42.65,74.87,42.6,74.9,42.56Z"/></clipPath><clipPath id="clip-path-131" transform="translate(-25.63 -40.51)"><path class="cls-1" d="M77.14,49.39l1.09-1.45a.13.13,0,0,1,.11-.06q.16,0,.33.6l-1.09,1.46c-.11-.41-.22-.61-.34-.61A.12.12,0,0,0,77.14,49.39Z"/></clipPath><clipPath id="clip-path-132" transform="translate(-25.63 -40.51)"><path class="cls-1" d="M81.05,49.68l1.09-1.45c.06-.08.11-.12.17-.12s.16.08.18.24a7,7,0,0,1,.05,1c0,.93,0,1.59,0,2a1.94,1.94,0,0,1-.2.78L81.2,53.6a1.68,1.68,0,0,0,.21-.78c0-.4,0-1,0-2a7.08,7.08,0,0,0,0-1q0-.24-.18-.24A.21.21,0,0,0,81.05,49.68Z"/></clipPath><clipPath id="clip-path-133" transform="translate(-25.63 -40.51)"><path class="cls-1" d="M85.72,53.68l-1.09,1.45a1,1,0,0,1-.33.28,2.08,2.08,0,0,1-.59.21l1.1-1.46a1.82,1.82,0,0,0,.58-.2A1,1,0,0,0,85.72,53.68Z"/></clipPath><clipPath id="clip-path-134" transform="translate(-25.63 -40.51)"><path class="cls-1" d="M81.94,52.71l-1.09,1.45a4,4,0,0,1,.35-.56l1.1-1.45A3.51,3.51,0,0,0,81.94,52.71Z"/></clipPath><clipPath id="clip-path-135" transform="translate(-25.63 -40.51)"><path class="cls-1" d="M84.81,54.16l-1.1,1.46c-.2,0-.51,0-.94.05a3.52,3.52,0,0,1-1.45-.23,1,1,0,0,1-.54-.9.86.86,0,0,1,.07-.38l1.09-1.45a.84.84,0,0,0-.06.38.9.9,0,0,0,.53.89,3.24,3.24,0,0,0,1.45.23A7.06,7.06,0,0,0,84.81,54.16Z"/></clipPath><clipPath id="clip-path-136" transform="translate(-25.63 -40.51)"><path class="cls-1" d="M80.12,53.54,79,55a9,9,0,0,1-.29-.86c-.16-.49-.28-.93-.38-1.31l1.09-1.45c.1.38.23.82.38,1.31A8.32,8.32,0,0,0,80.12,53.54Z"/></clipPath><clipPath id="clip-path-137" transform="translate(-25.63 -40.51)"><path class="cls-1" d="M80.52,53.63l-1.1,1.45a.19.19,0,0,1-.16.1c-.08,0-.16-.06-.23-.18l1.09-1.46c.07.13.15.19.23.19A.22.22,0,0,0,80.52,53.63Z"/></clipPath><clipPath id="clip-path-138" transform="translate(-25.63 -40.51)"><path class="cls-1" d="M76.35,52.29l-1.1,1.45a.8.8,0,0,0,.13-.28,5.51,5.51,0,0,0,.11-1c0-.52.06-1.38.09-2.56s0-2.2,0-3a9.86,9.86,0,0,0-.15-2.15.88.88,0,0,0-.12-.3,1.89,1.89,0,0,0-.25-.25l1.09-1.45a1.43,1.43,0,0,1,.25.25.72.72,0,0,1,.12.29,10.48,10.48,0,0,1,.16,2.15c0,.85,0,1.87,0,3s0,2-.08,2.57a6.47,6.47,0,0,1-.12,1A.79.79,0,0,1,76.35,52.29Z"/></clipPath><clipPath id="clip-path-139" transform="translate(-25.63 -40.51)"><path class="cls-1" d="M74.78,54.2l1.09-1.45,0,0-1.1,1.45Z"/></clipPath><clipPath id="clip-path-140" transform="translate(-25.63 -40.51)"><path class="cls-1" d="M78.65,53.74l-1.09,1.45a1.77,1.77,0,0,1-1.47.49q-1.4,0-1.41-1a1,1,0,0,1,.07-.4l1.1-1.45a.77.77,0,0,0-.07.39c0,.7.47,1.06,1.41,1.06A1.76,1.76,0,0,0,78.65,53.74Z"/></clipPath></defs><g class="cls-2"><g class="cls-2"><g class="cls-3"><g class="cls-2"><path class="cls-4" d="M72.45,46.07l-1.09,1.45a1.49,1.49,0,0,1-.39.34l1.09-1.46a1.31,1.31,0,0,0,.39-.33" transform="translate(-25.63 -40.51)"/></g></g></g><g class="cls-2"><g class="cls-5"><g class="cls-2"><path class="cls-4" d="M72.06,46.4,71,47.86a.75.75,0,0,0-.25.22l1.09-1.45a1.09,1.09,0,0,1,.25-.23" transform="translate(-25.63 -40.51)"/></g></g></g><g class="cls-2"><g class="cls-6"><g class="cls-2"><path class="cls-4" d="M70.19,46.27l-1.1,1.45a1.86,1.86,0,0,1-.22-.75,1,1,0,0,1,.19-.6l1.09-1.46a1,1,0,0,0-.18.61,1.71,1.71,0,0,0,.22.75" transform="translate(-25.63 -40.51)"/></g></g></g><g class="cls-2"><g class="cls-7"><g class="cls-2"><path class="cls-4" d="M69.93,48.65,68.84,50.1a1.88,1.88,0,0,0,.22-.5,4,4,0,0,0,.18-1.15,1.55,1.55,0,0,0-.15-.73l1.1-1.45a1.56,1.56,0,0,1,.14.73,4,4,0,0,1-.18,1.15,1.6,1.6,0,0,1-.22.5" transform="translate(-25.63 -40.51)"/></g></g></g><g class="cls-2"><g class="cls-8"><g class="cls-2"><path class="cls-4" d="M65.39,46.26,64.3,47.71a1.19,1.19,0,0,1-.09-.44,1.07,1.07,0,0,1,.21-.67l1.1-1.46a1.12,1.12,0,0,0-.21.68,1.41,1.41,0,0,0,.08.44" transform="translate(-25.63 -40.51)"/></g></g></g><g class="cls-2"><g class="cls-9"><g class="cls-2"><path class="cls-4" d="M65.6,46.56,64.51,48a.58.58,0,0,1-.21-.31l1.09-1.45a.56.56,0,0,0,.21.3" transform="translate(-25.63 -40.51)"/></g></g></g><g class="cls-2"><g class="cls-10"><g class="cls-2"><path class="cls-4" d="M66.08,47,65,48.49a1.7,1.7,0,0,0-.47-.47l1.09-1.46a2.12,2.12,0,0,1,.48.48" transform="translate(-25.63 -40.51)"/></g></g></g><g class="cls-2"><g class="cls-11"><g class="cls-2"><path class="cls-4" d="M66.41,48l-1.09,1.45a4.12,4.12,0,0,0-.34-1L66.08,47a4.87,4.87,0,0,1,.33,1" transform="translate(-25.63 -40.51)"/></g></g></g><polygon class="cls-12" points="42.2 12.49 41.11 13.95 39.7 8.96 40.79 7.51 42.2 12.49"/><g class="cls-2"><g class="cls-13"><g class="cls-2"><path class="cls-4" d="M68,55.19l-1.09,1.45A1.58,1.58,0,0,0,67,56a6.62,6.62,0,0,0-.3-1.53L67.83,53a6.56,6.56,0,0,1,.3,1.52,1.48,1.48,0,0,1-.11.66" transform="translate(-25.63 -40.51)"/></g></g></g><g class="cls-2"><g class="cls-14"><g class="cls-2"><path class="cls-4" d="M67.94,55.32l-1.09,1.45a.74.74,0,0,0,.08-.13L68,55.19a.41.41,0,0,1-.08.13" transform="translate(-25.63 -40.51)"/></g></g></g><g class="cls-2"><g class="cls-15"><g class="cls-2"><path class="cls-4" d="M68.89,56.57,67.79,58a2,2,0,0,1-1.59.9,1.63,1.63,0,0,1-1.39-.75,2.57,2.57,0,0,1-.41-1.49,2.67,2.67,0,0,1,.27-1.26,1.4,1.4,0,0,1,.12-.18l1.09-1.45a.78.78,0,0,0-.11.18,2.53,2.53,0,0,0-.28,1.26,2.59,2.59,0,0,0,.41,1.49,1.65,1.65,0,0,0,1.39.75,2,2,0,0,0,1.6-.9" transform="translate(-25.63 -40.51)"/></g></g></g><path class="cls-16" d="M67.87,44.42a1.93,1.93,0,0,1,1,.21,1.06,1.06,0,0,1,.47,1,1.66,1.66,0,0,1-.12.57,1.48,1.48,0,0,0-.14.56,2.31,2.31,0,0,0,.07.49c0,.17.13.44.26.85s.28.68.39.68.24-.2.37-.6A4,4,0,0,0,70.33,47a1.56,1.56,0,0,0-.14-.73,1.71,1.71,0,0,1-.22-.75,1,1,0,0,1,.38-.8,1.68,1.68,0,0,1,1.05-.3q1.23,0,1.23,1a1.11,1.11,0,0,1-.12.58,1.21,1.21,0,0,1-.45.41,1.2,1.2,0,0,0-.44.59A15.93,15.93,0,0,0,71,49.14l-.74,3.55a17.81,17.81,0,0,1-.56,2.14,7.37,7.37,0,0,1-.64,1.43,2.15,2.15,0,0,1-1.81,1.21,1.65,1.65,0,0,1-1.39-.75,2.59,2.59,0,0,1-.41-1.49A2.53,2.53,0,0,1,65.77,54a.81.81,0,0,1,.7-.52.75.75,0,0,1,.67.47,1.91,1.91,0,0,1,.17.37c0,.11.06.35.12.73s.14.43.29.43.22-.09.3-.26a1.48,1.48,0,0,0,.11-.66,6.56,6.56,0,0,0-.3-1.52l-1.42-5a4.87,4.87,0,0,0-.33-1,2.12,2.12,0,0,0-.48-.48.56.56,0,0,1-.21-.3,1.41,1.41,0,0,1-.08-.44c0-.58.33-1,1-1.18A5.2,5.2,0,0,1,67.87,44.42Z" transform="translate(-25.63 -40.51)"/></g><g class="cls-2"><g class="cls-2"><g class="cls-17"><g class="cls-2"><path class="cls-4" d="M62.67,45.67l-1.09,1.46a3.43,3.43,0,0,1,.39-.77l1.1-1.45a3.16,3.16,0,0,0-.4.76" transform="translate(-25.63 -40.51)"/></g></g></g><g class="cls-2"><g class="cls-18"><g class="cls-2"><path class="cls-4" d="M62.57,45.88l-1.09,1.45a.73.73,0,0,0,.1-.2l1.09-1.46a.51.51,0,0,1-.1.21" transform="translate(-25.63 -40.51)"/></g></g></g><g class="cls-2"><g class="cls-19"><g class="cls-2"><path class="cls-4" d="M64.58,48.47l-1.1,1.45a1,1,0,0,1-.81.46.68.68,0,0,1-.49-.17,3.17,3.17,0,0,1-.53-.71c-.08-.13-.16-.21-.23-.2a.18.18,0,0,0-.13.06l1.1-1.45a.17.17,0,0,1,.13-.07c.06,0,.14.07.22.21a3.17,3.17,0,0,0,.53.71.75.75,0,0,0,.49.17,1,1,0,0,0,.82-.46" transform="translate(-25.63 -40.51)"/></g></g></g><g class="cls-2"><g class="cls-20"><g class="cls-2"><path class="cls-4" d="M59.46,47.17l-1.1,1.45a.88.88,0,0,1-.41-.78,1.19,1.19,0,0,1,.24-.76l1.09-1.45a1.23,1.23,0,0,0-.24.76.87.87,0,0,0,.42.78" transform="translate(-25.63 -40.51)"/></g></g></g><g class="cls-2"><g class="cls-21"><g class="cls-2"><path class="cls-4" d="M59.69,47.48,58.6,48.93a.61.61,0,0,0-.24-.31l1.1-1.45a.65.65,0,0,1,.23.31" transform="translate(-25.63 -40.51)"/></g></g></g><g class="cls-2"><g class="cls-22"><g class="cls-2"><path class="cls-4" d="M63,53.81,62,55.27a.81.81,0,0,1-.37.27l1.09-1.45a.78.78,0,0,0,.37-.28" transform="translate(-25.63 -40.51)"/></g></g></g><g class="cls-2"><g class="cls-23"><g class="cls-2"><path class="cls-4" d="M59.58,51.8l-1.09,1.46a1.32,1.32,0,0,0,.09-.42c.06-.58.08-1.68.07-3.28a3,3,0,0,0,0-.63l1.09-1.45a2.31,2.31,0,0,1,.06.63c0,1.6,0,2.69-.08,3.28a1.25,1.25,0,0,1-.09.41" transform="translate(-25.63 -40.51)"/></g></g></g><g class="cls-2"><g class="cls-24"><g class="cls-2"><path class="cls-4" d="M59.44,52l-1.09,1.45a.65.65,0,0,0,.14-.23l1.09-1.46a.77.77,0,0,1-.14.24" transform="translate(-25.63 -40.51)"/></g></g></g><g class="cls-2"><g class="cls-25"><g class="cls-2"><path class="cls-4" d="M62.67,54.09l-1.09,1.45a5.15,5.15,0,0,1-1.63.2,3.11,3.11,0,0,1-1.55-.3,1,1,0,0,1-.48-.94,1.34,1.34,0,0,1,.27-.81l1.09-1.45a1.32,1.32,0,0,0-.27.81,1,1,0,0,0,.48.94,3.14,3.14,0,0,0,1.55.3,5.15,5.15,0,0,0,1.63-.2" transform="translate(-25.63 -40.51)"/></g></g></g><path class="cls-16" d="M61.77,44.45c.21,0,.34,0,.38.14a4.11,4.11,0,0,1,.12.93c0,.29.09.43.19.43s.15-.09.21-.28c.31-.82.71-1.22,1.21-1.22a1,1,0,0,1,.86.57,2.66,2.66,0,0,1,.27.73,4.19,4.19,0,0,1,.1.85,3.51,3.51,0,0,1-.12.94,2.77,2.77,0,0,1-.32.79,1.07,1.07,0,0,1-.91.6.75.75,0,0,1-.49-.17,3.17,3.17,0,0,1-.53-.71c-.08-.14-.16-.21-.22-.21s-.18.1-.22.31,0,.64,0,1.3a19.53,19.53,0,0,0,.08,2,1.08,1.08,0,0,0,.11.41.85.85,0,0,0,.31.22,1,1,0,0,1,.53.92,1.41,1.41,0,0,1-.17.69.83.83,0,0,1-.45.4,5.15,5.15,0,0,1-1.63.2,3.14,3.14,0,0,1-1.55-.3,1,1,0,0,1-.48-.94,1.32,1.32,0,0,1,.35-.9,1.09,1.09,0,0,0,.22-.35,1.25,1.25,0,0,0,.09-.41c.06-.59.08-1.68.08-3.28a2.31,2.31,0,0,0-.06-.63.65.65,0,0,0-.23-.31.87.87,0,0,1-.42-.78,1.19,1.19,0,0,1,.28-.81,3,3,0,0,1,.94-.67A3.72,3.72,0,0,1,61.77,44.45Z" transform="translate(-25.63 -40.51)"/></g><g class="cls-2"><g class="cls-2"><g class="cls-26"><g class="cls-2"><path class="cls-4" d="M58.08,44.09,57,45.54l0,0,1.09-1.46,0,0" transform="translate(-25.63 -40.51)"/></g></g></g><g class="cls-2"><g class="cls-27"><g class="cls-2"><path class="cls-4" d="M55.2,45.9l-1.09,1.45a.45.45,0,0,0-.37.2l1.1-1.45a.45.45,0,0,1,.36-.2" transform="translate(-25.63 -40.51)"/></g></g></g><g class="cls-2"><g class="cls-28"><g class="cls-2"><path class="cls-4" d="M52.5,46.58,51.4,48a3.25,3.25,0,0,1,.44-.85l1.1-1.45a2.64,2.64,0,0,0-.44.85" transform="translate(-25.63 -40.51)"/></g></g></g><g class="cls-2"><g class="cls-29"><g class="cls-2"><path class="cls-4" d="M55.64,49.38l-1.1,1.45a1,1,0,0,0,.12-.2,2.83,2.83,0,0,0,.17-1.06,5.3,5.3,0,0,0-.2-1.62c-.12-.38-.3-.58-.52-.6L55.2,45.9c.23,0,.4.21.53.6a5.69,5.69,0,0,1,.19,1.62,2.64,2.64,0,0,1-.17,1.06,1.8,1.8,0,0,1-.11.2" transform="translate(-25.63 -40.51)"/></g></g></g><g class="cls-2"><g class="cls-30"><g class="cls-2"><path class="cls-4" d="M57.44,49.7l-1.1,1.45a3,3,0,0,1-.85.78,2.79,2.79,0,0,1-1.44.4,1.65,1.65,0,0,1-.38,0l1.1-1.45a1.5,1.5,0,0,0,.37.05,2.77,2.77,0,0,0,1.44-.41,3,3,0,0,0,.86-.77" transform="translate(-25.63 -40.51)"/></g></g></g><g class="cls-2"><g class="cls-31"><g class="cls-2"><path class="cls-4" d="M54.77,50.83l-1.1,1.45-.23,0a.24.24,0,0,0-.21.1l1.09-1.45a.24.24,0,0,1,.21-.1,1.15,1.15,0,0,1,.24,0" transform="translate(-25.63 -40.51)"/></g></g></g><g class="cls-2"><g class="cls-32"><g class="cls-2"><path class="cls-4" d="M53,50.54,51.93,52a.3.3,0,0,0,0-.15.86.86,0,0,0-.18-.4,4,4,0,0,1-.61-2.16A3.69,3.69,0,0,1,51.4,48l1.1-1.45a3.26,3.26,0,0,0-.21,1.25,3.84,3.84,0,0,0,.6,2.15.88.88,0,0,1,.18.41.23.23,0,0,1,0,.15" transform="translate(-25.63 -40.51)"/></g></g></g><g class="cls-2"><g class="cls-33"><g class="cls-2"><path class="cls-4" d="M52.38,51.4l-1.09,1.45a2,2,0,0,1,.28-.48l1.09-1.46a2.52,2.52,0,0,0-.28.49" transform="translate(-25.63 -40.51)"/></g></g></g><g class="cls-2"><g class="cls-34"><g class="cls-2"><path class="cls-4" d="M56.2,55.93l-1.09,1.45a.91.91,0,0,0,.17-.56.69.69,0,0,0-.12-.41.34.34,0,0,0-.3-.17l-.27,0,1.09-1.45.27,0a.34.34,0,0,1,.3.17.69.69,0,0,1,.12.41.87.87,0,0,1-.17.56" transform="translate(-25.63 -40.51)"/></g></g></g><g class="cls-2"><g class="cls-35"><g class="cls-2"><path class="cls-4" d="M55.68,54.82l-1.09,1.45a2.37,2.37,0,0,1-.72.1,3.45,3.45,0,0,1-.57,0l1.1-1.45a3.43,3.43,0,0,0,.56.05,2.66,2.66,0,0,0,.72-.1" transform="translate(-25.63 -40.51)"/></g></g></g><g class="cls-2"><g class="cls-36"><g class="cls-2"><path class="cls-4" d="M52.64,53.72l-1.1,1.45a2.33,2.33,0,0,1-.47-1.36,2.3,2.3,0,0,1,.22-1l1.09-1.45a2.3,2.3,0,0,0-.22,1,2.28,2.28,0,0,0,.48,1.36" transform="translate(-25.63 -40.51)"/></g></g></g><g class="cls-2"><g class="cls-37"><g class="cls-2"><path class="cls-4" d="M54.4,54.87l-1.1,1.45a1.33,1.33,0,0,1-.33-.08l1.09-1.45a1.31,1.31,0,0,0,.34.08" transform="translate(-25.63 -40.51)"/></g></g></g><polygon class="cls-12" points="28.44 14.28 27.34 15.73 27.26 15.72 28.36 14.27 28.44 14.28"/><g class="cls-2"><g class="cls-38"><g class="cls-2"><path class="cls-4" d="M54,54.78l-1.09,1.45a.13.13,0,0,0-.1,0l1.1-1.45a.1.1,0,0,1,.09,0" transform="translate(-25.63 -40.51)"/></g></g></g><g class="cls-2"><g class="cls-39"><g class="cls-2"><path class="cls-4" d="M52.73,54.17l-1.1,1.45a.22.22,0,0,0,.06-.14.7.7,0,0,0-.15-.31l1.1-1.45a.63.63,0,0,1,.14.3.3.3,0,0,1-.05.15" transform="translate(-25.63 -40.51)"/></g></g></g><g class="cls-2"><g class="cls-40"><g class="cls-2"><path class="cls-4" d="M52.29,54.74,51.2,56.19a1.14,1.14,0,0,1,.17-.31l1.09-1.45a1.49,1.49,0,0,0-.17.31" transform="translate(-25.63 -40.51)"/></g></g></g><g class="cls-2"><g class="cls-41"><g class="cls-2"><path class="cls-4" d="M53,57.31l-1.1,1.45a2.31,2.31,0,0,1-.59-.82,2.86,2.86,0,0,1-.22-1,2,2,0,0,1,.12-.7l1.09-1.45a2,2,0,0,0-.11.7,2.5,2.5,0,0,0,.22,1.05,2.09,2.09,0,0,0,.59.82" transform="translate(-25.63 -40.51)"/></g></g></g><g class="cls-2"><g class="cls-42"><g class="cls-2"><path class="cls-4" d="M57.94,56.62l-1.09,1.45a3.22,3.22,0,0,1-1.08.93,3.81,3.81,0,0,1-1.79.42,3.21,3.21,0,0,1-2.09-.66L53,57.31a3.13,3.13,0,0,0,2.09.65,3.58,3.58,0,0,0,1.78-.42,3.2,3.2,0,0,0,1.08-.92" transform="translate(-25.63 -40.51)"/></g></g></g><path class="cls-16" d="M58.59,52.89A3.7,3.7,0,0,1,58.77,54a4.47,4.47,0,0,1-.42,1.92,3.39,3.39,0,0,1-1.49,1.61,3.58,3.58,0,0,1-1.78.42A3.13,3.13,0,0,1,53,57.31a2.09,2.09,0,0,1-.59-.82,2.5,2.5,0,0,1-.22-1.05,2,2,0,0,1,.11-.7,1.08,1.08,0,0,1,.31-.45.36.36,0,0,0,.18-.27.63.63,0,0,0-.14-.3,2.28,2.28,0,0,1-.48-1.36,2.3,2.3,0,0,1,.22-1,2.22,2.22,0,0,1,.55-.78.28.28,0,0,0,.14-.23.88.88,0,0,0-.18-.41,3.84,3.84,0,0,1-.6-2.15,3.26,3.26,0,0,1,.21-1.25,2.83,2.83,0,0,1,.58-1,2.78,2.78,0,0,1,2.05-1,3.07,3.07,0,0,1,1,.19,3.39,3.39,0,0,0,.72.18,1.69,1.69,0,0,0,1.25-.85c.1-.11.17-.18.21-.18s.19.09.26.28a1.67,1.67,0,0,1,.12.65,3.25,3.25,0,0,1-.15.91,3.07,3.07,0,0,1-.35.81.59.59,0,0,0-.13.31s0,.09,0,.23a2.42,2.42,0,0,1,0,.37,3.88,3.88,0,0,1-.45,2,3.11,3.11,0,0,1-1.07,1.09,2.77,2.77,0,0,1-1.44.41,1.5,1.5,0,0,1-.37-.05,1.15,1.15,0,0,0-.24,0c-.21,0-.3.17-.3.51a.65.65,0,0,0,.2.52A.73.73,0,0,0,55,52a3.15,3.15,0,0,0,.68-.1,6.23,6.23,0,0,1,1.4-.23,1.4,1.4,0,0,1,1.06.37A2.1,2.1,0,0,1,58.59,52.89Zm-3.85-6.62a2.31,2.31,0,0,0-.18,1,5.83,5.83,0,0,0,.2,1.68c.13.43.3.64.5.64s.37-.14.49-.4a2.64,2.64,0,0,0,.17-1.06,5.69,5.69,0,0,0-.19-1.62c-.13-.39-.3-.58-.53-.6s-.35.13-.46.37m1.32,9.81a.86.86,0,0,0,.31-.71.69.69,0,0,0-.12-.41.34.34,0,0,0-.3-.17l-.27,0a2.66,2.66,0,0,1-.72.1,3.43,3.43,0,0,1-.56-.05,1.31,1.31,0,0,1-.34-.08H54c-.1,0-.14.09-.14.27a1.24,1.24,0,0,0,.37.94,1.37,1.37,0,0,0,1,.35,1.47,1.47,0,0,0,.89-.26" transform="translate(-25.63 -40.51)"/></g><g class="cls-2"><g class="cls-2"><g class="cls-43"><g class="cls-2"><path class="cls-4" d="M47.74,46l-1.09,1.45a1.43,1.43,0,0,0,.14-.28,3.26,3.26,0,0,1,.35-.62l1.09-1.45a2.78,2.78,0,0,0-.34.62,1.17,1.17,0,0,1-.15.28" transform="translate(-25.63 -40.51)"/></g></g></g><g class="cls-2"><g class="cls-44"><g class="cls-2"><path class="cls-4" d="M44.41,47.22l-1.09,1.45a.88.88,0,0,1-.26-.64,1,1,0,0,1,.19-.63L44.35,46a.91.91,0,0,0-.19.63.87.87,0,0,0,.25.64" transform="translate(-25.63 -40.51)"/></g></g></g><g class="cls-2"><g class="cls-45"><g class="cls-2"><path class="cls-4" d="M44.76,47.73l-1.1,1.45a1.38,1.38,0,0,0-.34-.51l1.09-1.45a1.49,1.49,0,0,1,.35.51" transform="translate(-25.63 -40.51)"/></g></g></g><g class="cls-2"><g class="cls-46"><g class="cls-2"><path class="cls-4" d="M51.7,53.85,50.61,55.3a1,1,0,0,1-.26.23l1.09-1.46a.8.8,0,0,0,.26-.22" transform="translate(-25.63 -40.51)"/></g></g></g><g class="cls-2"><g class="cls-47"><g class="cls-2"><path class="cls-4" d="M48.6,52.57,47.51,54a8.5,8.5,0,0,0,.22-2.73,7.33,7.33,0,0,0-.2-2c-.1-.35-.28-.52-.55-.52a.5.5,0,0,0-.42.2l1.1-1.45a.5.5,0,0,1,.41-.2c.27,0,.45.17.55.52a7.33,7.33,0,0,1,.2,2,8.42,8.42,0,0,1-.22,2.72" transform="translate(-25.63 -40.51)"/></g></g></g><g class="cls-2"><g class="cls-48"><g class="cls-2"><path class="cls-4" d="M48.37,53l-1.09,1.46a3.77,3.77,0,0,1,.23-.45l1.09-1.46c-.12.25-.2.39-.23.45" transform="translate(-25.63 -40.51)"/></g></g></g><g class="cls-2"><g class="cls-49"><g class="cls-2"><path class="cls-4" d="M51.44,54.07l-1.09,1.46a3.84,3.84,0,0,1-1.63.25,1.93,1.93,0,0,1-1.13-.23l1.09-1.45a2.1,2.1,0,0,0,1.13.23,3.6,3.6,0,0,0,1.63-.26" transform="translate(-25.63 -40.51)"/></g></g></g><g class="cls-2"><g class="cls-50"><g class="cls-2"><path class="cls-4" d="M48.68,54.1l-1.09,1.45a.89.89,0,0,1-.34-.79,1,1,0,0,1,0-.28L48.37,53a1.12,1.12,0,0,0,0,.29.89.89,0,0,0,.34.79" transform="translate(-25.63 -40.51)"/></g></g></g><g class="cls-2"><g class="cls-51"><g class="cls-2"><path class="cls-4" d="M47.63,53.83l-1.09,1.45a.89.89,0,0,1-.29.25l1.1-1.45a1,1,0,0,0,.28-.25" transform="translate(-25.63 -40.51)"/></g></g></g><g class="cls-2"><g class="cls-52"><g class="cls-2"><path class="cls-4" d="M44.56,52.5,43.47,54a1,1,0,0,0,.16-.39c0-.15,0-.55.07-1.17s0-1.52,0-2.33a3.32,3.32,0,0,0-.07-.88l1.1-1.45a4,4,0,0,1,.06.88c0,.81,0,1.59,0,2.33s0,1-.08,1.17a.85.85,0,0,1-.16.39" transform="translate(-25.63 -40.51)"/></g></g></g><g class="cls-2"><g class="cls-53"><g class="cls-2"><path class="cls-4" d="M44.3,52.89l-1.09,1.45a1.83,1.83,0,0,1,.16-.27l1.09-1.45a1.43,1.43,0,0,0-.16.27" transform="translate(-25.63 -40.51)"/></g></g></g><path class="cls-16" d="M49.32,44.49a1.54,1.54,0,0,1,1.25.65,2.44,2.44,0,0,1,.51,1.06A9.19,9.19,0,0,1,51.27,48l.1,3.43a2.21,2.21,0,0,0,.07.57,5.79,5.79,0,0,0,.36.71.9.9,0,0,1,.09.44.93.93,0,0,1-.45.9,3.6,3.6,0,0,1-1.63.26,2.1,2.1,0,0,1-1.13-.23.89.89,0,0,1-.34-.79,1.12,1.12,0,0,1,0-.29c0-.06.11-.2.23-.45a8.42,8.42,0,0,0,.22-2.72,7.33,7.33,0,0,0-.2-2c-.1-.35-.28-.52-.55-.52a.54.54,0,0,0-.53.42,5.43,5.43,0,0,0-.13,1.53v1.92a4.63,4.63,0,0,0,0,.79,5.22,5.22,0,0,0,.29.83,1.23,1.23,0,0,1,.06.39.93.93,0,0,1-.46.86,3.27,3.27,0,0,1-1.49.28c-1.07,0-1.6-.38-1.6-1.12a1,1,0,0,1,0-.35,2.41,2.41,0,0,1,.23-.36.85.85,0,0,0,.19-.42c0-.15.05-.55.08-1.17s0-1.52,0-2.33a4,4,0,0,0-.06-.88,1.49,1.49,0,0,0-.35-.51.87.87,0,0,1-.25-.64,1,1,0,0,1,.19-.64,3.23,3.23,0,0,1,.84-.63,7.81,7.81,0,0,1,1.06-.56,2.14,2.14,0,0,1,.7-.24.32.32,0,0,1,.29.21,1.07,1.07,0,0,1,.13.51s0,.11,0,.24v.15c0,.3.08.46.23.46s.19-.12.3-.38C48.22,44.9,48.69,44.49,49.32,44.49Z" transform="translate(-25.63 -40.51)"/><g class="cls-2"><g class="cls-54"><g class="cls-2"><path class="cls-4" d="M47.35,54.08l-1.1,1.45a3.07,3.07,0,0,1-1.48.28c-1.07,0-1.6-.37-1.61-1.12a1,1,0,0,1,.05-.35l1.09-1.45a1,1,0,0,0,0,.35c0,.74.53,1.12,1.6,1.12a3.27,3.27,0,0,0,1.49-.28" transform="translate(-25.63 -40.51)"/></g></g></g></g><g class="cls-2"><g class="cls-2"><g class="cls-55"><g class="cls-2"><path class="cls-4" d="M40.39,46.56,39.29,48a1,1,0,0,1-.32-.74.87.87,0,0,1,.16-.54l1.09-1.45a.85.85,0,0,0-.16.54.94.94,0,0,0,.33.74" transform="translate(-25.63 -40.51)"/></g></g></g><g class="cls-2"><g class="cls-56"><g class="cls-2"><path class="cls-4" d="M40.61,46.82l-1.09,1.45a1.58,1.58,0,0,0-.23-.26l1.1-1.45a1.44,1.44,0,0,1,.22.26" transform="translate(-25.63 -40.51)"/></g></g></g><g class="cls-2"><g class="cls-57"><g class="cls-2"><path class="cls-4" d="M40.69,47.18,39.6,48.63a1.14,1.14,0,0,0-.08-.36l1.09-1.45a.91.91,0,0,1,.08.36" transform="translate(-25.63 -40.51)"/></g></g></g><g class="cls-2"><g class="cls-58"><g class="cls-2"><path class="cls-4" d="M36.2,46.28l-1.09,1.45a.61.61,0,0,1-.07-.32,1.05,1.05,0,0,1,.19-.66l1.09-1.45a1.11,1.11,0,0,0-.18.65.75.75,0,0,0,.06.33" transform="translate(-25.63 -40.51)"/></g></g></g><g class="cls-2"><g class="cls-59"><g class="cls-2"><path class="cls-4" d="M36.48,46.59,35.39,48a1,1,0,0,1-.28-.31l1.09-1.45a1.39,1.39,0,0,0,.28.31" transform="translate(-25.63 -40.51)"/></g></g></g><g class="cls-2"><g class="cls-60"><g class="cls-2"><path class="cls-4" d="M36.82,47.2l-1.1,1.45a1.17,1.17,0,0,0-.33-.61l1.09-1.45a1.21,1.21,0,0,1,.34.61" transform="translate(-25.63 -40.51)"/></g></g></g><g class="cls-2"><g class="cls-61"><g class="cls-2"><path class="cls-4" d="M40.65,51.44l-1.09,1.45a10.27,10.27,0,0,0,.11-2.08c0-1.06,0-1.79-.07-2.18l1.09-1.45c0,.39.07,1.11.08,2.18a10.87,10.87,0,0,1-.12,2.08" transform="translate(-25.63 -40.51)"/></g></g></g><g class="cls-2"><g class="cls-62"><g class="cls-2"><path class="cls-4" d="M36.91,48.88l-1.09,1.46v-.45a6,6,0,0,0-.1-1.24l1.1-1.45a7,7,0,0,1,.09,1.23v.45" transform="translate(-25.63 -40.51)"/></g></g></g><g class="cls-2"><g class="cls-63"><g class="cls-2"><path class="cls-4" d="M40.5,51.76l-1.09,1.45a1.35,1.35,0,0,0,.15-.32l1.09-1.45a.86.86,0,0,1-.15.32" transform="translate(-25.63 -40.51)"/></g></g></g><polygon class="cls-12" points="14.99 12.73 13.89 14.18 13.76 14.24 14.85 12.79 14.99 12.73"/><g class="cls-2"><g class="cls-64"><g class="cls-2"><path class="cls-4" d="M41,54.27l-1.09,1.45a.65.65,0,0,1-.12-.42c0-.4-.09-.61-.22-.61l1.09-1.45c.13,0,.2.21.22.6a.76.76,0,0,0,.12.43" transform="translate(-25.63 -40.51)"/></g></g></g><g class="cls-2"><g class="cls-65"><g class="cls-2"><path class="cls-4" d="M43.72,53.41l-1.09,1.46a2.25,2.25,0,0,1-1,.66,3.86,3.86,0,0,1-1.4.29.5.5,0,0,1-.38-.1L41,54.27a.54.54,0,0,0,.38.1,3.82,3.82,0,0,0,1.4-.29,2.18,2.18,0,0,0,1-.67" transform="translate(-25.63 -40.51)"/></g></g></g><path class="cls-16" d="M42.73,44.53c.4,0,.59.34.59,1V46c0,.3,0,.69,0,1.14l0,4.29a.74.74,0,0,0,.34.6.85.85,0,0,1,.28.69c0,.58-.4,1-1.22,1.35a3.82,3.82,0,0,1-1.4.29.54.54,0,0,1-.38-.1.76.76,0,0,1-.12-.43c0-.39-.09-.6-.22-.6l-.13.06s-.15.17-.35.39a1.63,1.63,0,0,1-1.25.68,1.58,1.58,0,0,1-1.57-1.07,8.65,8.65,0,0,1-.4-3V48.43a7,7,0,0,0-.09-1.23,1.21,1.21,0,0,0-.34-.61,1.39,1.39,0,0,1-.28-.31.75.75,0,0,1-.06-.33.93.93,0,0,1,.66-1,6.41,6.41,0,0,1,2.25-.43c.24,0,.35.16.35.48l0,5.28c0,1.14.23,1.7.67,1.7a.49.49,0,0,0,.34-.16.92.92,0,0,0,.22-.4,10.87,10.87,0,0,0,.12-2.08c0-1.07,0-1.79-.08-2.18a.91.91,0,0,0-.08-.36,1.44,1.44,0,0,0-.22-.26.94.94,0,0,1-.33-.74.84.84,0,0,1,.56-.84A5.41,5.41,0,0,1,42.73,44.53Z" transform="translate(-25.63 -40.51)"/><g class="cls-2"><g class="cls-66"><g class="cls-2"><path class="cls-4" d="M40.48,53.3l-1.09,1.45a4.39,4.39,0,0,0-.35.4,1.69,1.69,0,0,1-1.25.68,1.6,1.6,0,0,1-1.57-1.08,8.2,8.2,0,0,1-.4-3c0-.53,0-1,0-1.36l1.09-1.46v1.37a8.65,8.65,0,0,0,.4,3,1.58,1.58,0,0,0,1.57,1.07,1.63,1.63,0,0,0,1.25-.68c.2-.22.31-.36.35-.39" transform="translate(-25.63 -40.51)"/></g></g></g></g><g class="cls-2"><g class="cls-2"><g class="cls-67"><g class="cls-2"><path class="cls-4" d="M35.64,42.75,34.55,44.2a1.21,1.21,0,0,1-.16.16l1.09-1.45a1.21,1.21,0,0,0,.16-.16" transform="translate(-25.63 -40.51)"/></g></g></g><g class="cls-2"><g class="cls-68"><g class="cls-2"><path class="cls-4" d="M35.48,42.91l-1.09,1.45a1,1,0,0,0-.21.21l1.1-1.45a1.29,1.29,0,0,1,.2-.21" transform="translate(-25.63 -40.51)"/></g></g></g><g class="cls-2"><g class="cls-69"><g class="cls-2"><path class="cls-4" d="M31.69,42.57,30.6,44a1.15,1.15,0,0,1-.08-.46,1.48,1.48,0,0,1,.18-.72l.09-.15,1.1-1.45a.78.78,0,0,0-.1.15,1.48,1.48,0,0,0-.18.72,1.19,1.19,0,0,0,.08.46" transform="translate(-25.63 -40.51)"/></g></g></g><g class="cls-2"><g class="cls-70"><g class="cls-2"><path class="cls-4" d="M32,43l-1.09,1.45A1.54,1.54,0,0,1,30.6,44l1.09-1.45A1.76,1.76,0,0,0,32,43" transform="translate(-25.63 -40.51)"/></g></g></g><g class="cls-2"><g class="cls-71"><g class="cls-2"><path class="cls-4" d="M32.3,43.67l-1.09,1.46a1.18,1.18,0,0,0-.27-.7L32,43a1.11,1.11,0,0,1,.27.69" transform="translate(-25.63 -40.51)"/></g></g></g><g class="cls-2"><g class="cls-72"><g class="cls-2"><path class="cls-4" d="M30.81,42.74l-1.09,1.45a2.32,2.32,0,0,1-.22.25L30.59,43a2.32,2.32,0,0,0,.22-.25" transform="translate(-25.63 -40.51)"/></g></g></g><g class="cls-2"><g class="cls-73"><g class="cls-2"><path class="cls-4" d="M30.59,43,29.5,44.44a.27.27,0,0,0-.07.08l1.09-1.45.07-.08" transform="translate(-25.63 -40.51)"/></g></g></g><g class="cls-2"><g class="cls-74"><g class="cls-2"><path class="cls-4" d="M32.29,46l-1.1,1.45a.82.82,0,0,0,.1-.48,13.84,13.84,0,0,0-.08-1.79l1.09-1.46a12.37,12.37,0,0,1,.08,1.79.94.94,0,0,1-.09.49" transform="translate(-25.63 -40.51)"/></g></g></g><g class="cls-2"><g class="cls-75"><g class="cls-2"><path class="cls-4" d="M27,42.91l-1.09,1.45a.71.71,0,0,1-.27-.61A1.24,1.24,0,0,1,25.9,43L27,41.51a1.31,1.31,0,0,0-.25.79.77.77,0,0,0,.27.61" transform="translate(-25.63 -40.51)"/></g></g></g><g class="cls-2"><g class="cls-76"><g class="cls-2"><path class="cls-4" d="M30.42,48.63l-1.1,1.45,0,0,1.09-1.45.05,0" transform="translate(-25.63 -40.51)"/></g></g></g><g class="cls-2"><g class="cls-77"><g class="cls-2"><path class="cls-4" d="M32.31,51.34l-1.09,1.45a18.83,18.83,0,0,0,.09-2,1.57,1.57,0,0,0-.12-.76c-.07-.1-.25-.14-.55-.14a2.76,2.76,0,0,0-1.32.2l1.1-1.45a2.59,2.59,0,0,1,1.31-.2c.31,0,.49,0,.56.14a1.61,1.61,0,0,1,.11.76,19,19,0,0,1-.09,2" transform="translate(-25.63 -40.51)"/></g></g></g><g class="cls-2"><g class="cls-78"><g class="cls-2"><path class="cls-4" d="M35.58,53.79l-1.1,1.45a1,1,0,0,1-.28.26L35.29,54a1.16,1.16,0,0,0,.29-.25" transform="translate(-25.63 -40.51)"/></g></g></g><g class="cls-2"><g class="cls-79"><g class="cls-2"><path class="cls-4" d="M32.19,51.92l-1.1,1.45a3,3,0,0,0,.13-.58l1.09-1.45a4.53,4.53,0,0,1-.12.58" transform="translate(-25.63 -40.51)"/></g></g></g><g class="cls-2"><g class="cls-80"><g class="cls-2"><path class="cls-4" d="M32.09,52.08,31,53.53a.89.89,0,0,0,.09-.16l1.1-1.45a.59.59,0,0,1-.1.16" transform="translate(-25.63 -40.51)"/></g></g></g><g class="cls-2"><g class="cls-81"><g class="cls-2"><path class="cls-4" d="M35.29,54,34.2,55.5a3.29,3.29,0,0,1-1.69.34A2.64,2.64,0,0,1,31,55.51a1.1,1.1,0,0,1-.46-1,1.21,1.21,0,0,1,.22-.75l1.09-1.45a1.28,1.28,0,0,0-.22.75,1.12,1.12,0,0,0,.46,1,2.66,2.66,0,0,0,1.52.33A3.18,3.18,0,0,0,35.29,54" transform="translate(-25.63 -40.51)"/></g></g></g><g class="cls-2"><g class="cls-82"><g class="cls-2"><path class="cls-4" d="M27.44,51.78l-1.09,1.45a4.34,4.34,0,0,0,.1-.72c.05-.75.08-1.75.07-3,0-.22,0-.49,0-.81,0-1.55,0-2.44,0-2.67A3.79,3.79,0,0,0,26.39,45a1.64,1.64,0,0,0-.47-.6L27,42.91a1.63,1.63,0,0,1,.47.59,3.87,3.87,0,0,1,.08,1.1c0,.23,0,1.12,0,2.67,0,.32,0,.59,0,.81,0,1.23,0,2.22-.08,3a3.46,3.46,0,0,1-.1.72" transform="translate(-25.63 -40.51)"/></g></g></g><g class="cls-2"><g class="cls-83"><g class="cls-2"><path class="cls-4" d="M30.75,53.75,29.66,55.2a1.54,1.54,0,0,1-.32.3l1.09-1.45a1.32,1.32,0,0,0,.32-.3" transform="translate(-25.63 -40.51)"/></g></g></g><g class="cls-2"><g class="cls-84"><g class="cls-2"><path class="cls-4" d="M27.33,52l-1.1,1.45a.84.84,0,0,0,.12-.23l1.09-1.45a.61.61,0,0,1-.11.23" transform="translate(-25.63 -40.51)"/></g></g></g><g class="cls-2"><g class="cls-85"><g class="cls-2"><path class="cls-4" d="M26.81,52.58,25.71,54a.36.36,0,0,1,.07-.1l1.09-1.45a.24.24,0,0,0-.06.09" transform="translate(-25.63 -40.51)"/></g></g></g><g class="cls-2"><g class="cls-86"><g class="cls-2"><path class="cls-4" d="M26.87,53.67l-1.1,1.45a1.28,1.28,0,0,1-.14-.59,1.24,1.24,0,0,1,.08-.49l1.1-1.46a1.15,1.15,0,0,0-.09.5,1.32,1.32,0,0,0,.15.59" transform="translate(-25.63 -40.51)"/></g></g></g><path class="cls-16" d="M29.23,40.7c1.2,0,1.8.42,1.8,1.25a1.48,1.48,0,0,1-.08.56,1.86,1.86,0,0,1-.36.48,1.15,1.15,0,0,0-.28.61,11.1,11.1,0,0,0,0,1.54,1.41,1.41,0,0,0,.15.84.42.42,0,0,0,.27.11,7.39,7.39,0,0,0,.82,0,1.68,1.68,0,0,0,.74-.11c.1-.08.14-.25.14-.54a12.37,12.37,0,0,0-.08-1.79A1.11,1.11,0,0,0,32,43a1.76,1.76,0,0,1-.34-.41,1.19,1.19,0,0,1-.08-.46,1.48,1.48,0,0,1,.18-.72,1,1,0,0,1,.46-.45,4.07,4.07,0,0,1,1.51-.25,2.85,2.85,0,0,1,1.57.33,1.1,1.1,0,0,1,.51,1,1,1,0,0,1-.36.88.84.84,0,0,0-.28.34,1.85,1.85,0,0,0-.12.59c0,.17,0,.89,0,2.17s0,2.3,0,3.05a17.88,17.88,0,0,0,.1,2.51,1,1,0,0,0,.1.39,2.14,2.14,0,0,0,.37.39.83.83,0,0,1,.22.62A1.15,1.15,0,0,1,35.29,54a3.18,3.18,0,0,1-1.69.35,2.66,2.66,0,0,1-1.52-.33,1.12,1.12,0,0,1-.46-1,1.17,1.17,0,0,1,.34-.88,1,1,0,0,0,.23-.3,4.53,4.53,0,0,0,.12-.58,19,19,0,0,0,.09-2,1.61,1.61,0,0,0-.11-.76c-.07-.1-.25-.14-.56-.14a2.59,2.59,0,0,0-1.31.2c-.08,0-.13.2-.15.46s0,.69,0,1.14a4.88,4.88,0,0,0,.2,1.6,1.24,1.24,0,0,0,.3.4A1,1,0,0,1,31,53a1.17,1.17,0,0,1-.55,1,3.08,3.08,0,0,1-1.6.36,3.1,3.1,0,0,1-1.55-.33,1,1,0,0,1-.41-.41,1.32,1.32,0,0,1-.15-.59,1.15,1.15,0,0,1,.09-.5,2,2,0,0,1,.4-.45.7.7,0,0,0,.23-.35,3.46,3.46,0,0,0,.1-.72c.05-.76.08-1.75.08-3,0-.22,0-.49,0-.81,0-1.55,0-2.44,0-2.67a3.87,3.87,0,0,0-.08-1.1,1.63,1.63,0,0,0-.47-.59.77.77,0,0,1-.27-.61,1.41,1.41,0,0,1,1.13-1.37A4.18,4.18,0,0,1,29.23,40.7Z" transform="translate(-25.63 -40.51)"/><g class="cls-2"><g class="cls-87"><g class="cls-2"><path class="cls-4" d="M30.43,54.05,29.34,55.5a3.08,3.08,0,0,1-1.6.36,3.1,3.1,0,0,1-1.55-.32,1.13,1.13,0,0,1-.42-.42l1.1-1.45a1,1,0,0,0,.41.41,3.1,3.1,0,0,0,1.55.33,3.08,3.08,0,0,0,1.6-.36" transform="translate(-25.63 -40.51)"/></g></g></g></g><g class="cls-2"><g class="cls-2"><g class="cls-88"><g class="cls-2"><path class="cls-4" d="M122.16,45.65l-1.09,1.46a1,1,0,0,0,.1-.21,3.34,3.34,0,0,1,.39-.76l1.1-1.45a3,3,0,0,0-.4.76.73.73,0,0,1-.1.2" transform="translate(-25.63 -40.51)"/></g></g></g><g class="cls-2"><g class="cls-89"><g class="cls-2"><path class="cls-4" d="M122.85,48.53,121.76,50a3.52,3.52,0,0,1-.53-.71c-.08-.14-.15-.21-.22-.21a.15.15,0,0,0-.13.07L122,47.69a.16.16,0,0,1,.13-.07c.07,0,.14.07.23.21a3.09,3.09,0,0,0,.52.7" transform="translate(-25.63 -40.51)"/></g></g></g><g class="cls-2"><g class="cls-90"><g class="cls-2"><path class="cls-4" d="M124.15,48.26l-1.09,1.45a1,1,0,0,1-.81.45.75.75,0,0,1-.49-.17l1.09-1.46a.72.72,0,0,0,.5.17,1,1,0,0,0,.8-.44" transform="translate(-25.63 -40.51)"/></g></g></g><g class="cls-2"><g class="cls-91"><g class="cls-2"><path class="cls-4" d="M119.05,47,118,48.4a.86.86,0,0,1-.41-.78,1.2,1.2,0,0,1,.24-.77l1.09-1.45a1.26,1.26,0,0,0-.24.77.87.87,0,0,0,.42.78" transform="translate(-25.63 -40.51)"/></g></g></g><g class="cls-2"><g class="cls-92"><g class="cls-2"><path class="cls-4" d="M119.27,47.25l-1.09,1.45a.61.61,0,0,0-.23-.3l1.1-1.45a.54.54,0,0,1,.22.3" transform="translate(-25.63 -40.51)"/></g></g></g><g class="cls-2"><g class="cls-93"><g class="cls-2"><path class="cls-4" d="M119.25,51.17l-1.09,1.45c.06-.59.09-1.69.09-3.29a2,2,0,0,0-.07-.63l1.09-1.45a1.94,1.94,0,0,1,.07.63,31.81,31.81,0,0,1-.09,3.29" transform="translate(-25.63 -40.51)"/></g></g></g><g class="cls-2"><g class="cls-94"><g class="cls-2"><path class="cls-4" d="M122.62,53.6l-1.1,1.45a.64.64,0,0,1-.35.26l1.09-1.45a.72.72,0,0,0,.36-.26" transform="translate(-25.63 -40.51)"/></g></g></g><g class="cls-2"><g class="cls-95"><g class="cls-2"><path class="cls-4" d="M119.18,51.58,118.08,53a1.29,1.29,0,0,0,.08-.41l1.09-1.45a1.32,1.32,0,0,1-.07.41" transform="translate(-25.63 -40.51)"/></g></g></g><g class="cls-2"><g class="cls-96"><g class="cls-2"><path class="cls-4" d="M119,51.81,118,53.26a1.1,1.1,0,0,0,.13-.23l1.1-1.45-.14.23" transform="translate(-25.63 -40.51)"/></g></g></g><g class="cls-2"><g class="cls-97"><g class="cls-2"><path class="cls-4" d="M122.26,53.86l-1.09,1.45a4.83,4.83,0,0,1-1.63.21,3.3,3.3,0,0,1-1.56-.3,1,1,0,0,1-.47-.94,1.26,1.26,0,0,1,.27-.81L118.87,52a1.27,1.27,0,0,0-.26.81,1,1,0,0,0,.47,1,3.24,3.24,0,0,0,1.56.3,5,5,0,0,0,1.62-.21" transform="translate(-25.63 -40.51)"/></g></g></g><path class="cls-16" d="M121.37,44.22c.2,0,.32.05.37.14a4.67,4.67,0,0,1,.13.94c0,.29.07.43.17.43s.15-.09.22-.28c.3-.82.71-1.23,1.2-1.23a1,1,0,0,1,.87.58,2.31,2.31,0,0,1,.26.72,3.27,3.27,0,0,1,.11.86,3.44,3.44,0,0,1-.12.93,2.71,2.71,0,0,1-.33.8,1.05,1.05,0,0,1-.9.59.72.72,0,0,1-.5-.17,3.09,3.09,0,0,1-.52-.7c-.09-.14-.16-.21-.23-.21s-.18.1-.21.31a9.61,9.61,0,0,0,0,1.29c0,1,0,1.65.07,2a1.12,1.12,0,0,0,.12.4.79.79,0,0,0,.3.23.92.92,0,0,1,.53.91,1.29,1.29,0,0,1-.17.69.75.75,0,0,1-.44.4,5,5,0,0,1-1.62.21,3.24,3.24,0,0,1-1.56-.3,1,1,0,0,1-.47-1,1.27,1.27,0,0,1,.33-.9,1.26,1.26,0,0,0,.24-.34,1.32,1.32,0,0,0,.07-.41,31.81,31.81,0,0,0,.09-3.29,1.94,1.94,0,0,0-.07-.63.54.54,0,0,0-.22-.3.87.87,0,0,1-.42-.78,1.19,1.19,0,0,1,.28-.81,2.83,2.83,0,0,1,1-.67A3.68,3.68,0,0,1,121.37,44.22Z" transform="translate(-25.63 -40.51)"/></g><g class="cls-2"><g class="cls-2"><g class="cls-98"><g class="cls-2"><path class="cls-4" d="M116,47.58,114.93,49a.8.8,0,0,0,.11-.46,1.93,1.93,0,0,0-.18-.86.53.53,0,0,0-.47-.32.44.44,0,0,0-.38.2l1.09-1.45a.46.46,0,0,1,.38-.21.54.54,0,0,1,.47.33,1.8,1.8,0,0,1,.18.86.7.7,0,0,1-.11.45" transform="translate(-25.63 -40.51)"/></g></g></g><g class="cls-2"><g class="cls-99"><g class="cls-2"><path class="cls-4" d="M118,49.36l-1.09,1.45a.33.33,0,0,1-.28.16l1.09-1.45a.36.36,0,0,0,.28-.16" transform="translate(-25.63 -40.51)"/></g></g></g><polygon class="cls-12" points="92.13 9.01 91.03 10.46 88.32 10.47 89.41 9.02 92.13 9.01"/><g class="cls-2"><g class="cls-100"><g class="cls-2"><path class="cls-4" d="M115,49.53,113.94,51a.16.16,0,0,0-.13.06l1.1-1.45a.15.15,0,0,1,.13-.06" transform="translate(-25.63 -40.51)"/></g></g></g><g class="cls-2"><g class="cls-101"><g class="cls-2"><path class="cls-4" d="M117.58,53l-1.09,1.45,0,0a2.65,2.65,0,0,1-2.12,1.16,2.42,2.42,0,0,1-2-1.18,5.27,5.27,0,0,1-.66-1.41,7.64,7.64,0,0,1-.35-2.31,6.89,6.89,0,0,1,.58-2.94,4.57,4.57,0,0,1,.56-1l1.09-1.46a4.83,4.83,0,0,0-.56,1,7.13,7.13,0,0,0-.58,3,7.64,7.64,0,0,0,.35,2.31,5.28,5.28,0,0,0,.67,1.41,2.41,2.41,0,0,0,2,1.18A2.65,2.65,0,0,0,117.56,53l0,0" transform="translate(-25.63 -40.51)"/></g></g></g><path class="cls-16" d="M115,49.53c-.12,0-.18.09-.18.26a2,2,0,0,0,.42,1.19,1.12,1.12,0,0,0,.87.56,1.2,1.2,0,0,0,.61-.19,1.66,1.66,0,0,0,.56-.44c.13-.15.23-.23.31-.23s.2.1.3.31a1.62,1.62,0,0,1,.15.64,2.21,2.21,0,0,1-.52,1.36,2.65,2.65,0,0,1-2.12,1.16,2.41,2.41,0,0,1-2-1.18,5.28,5.28,0,0,1-.67-1.41,7.64,7.64,0,0,1-.35-2.31,7.13,7.13,0,0,1,.58-3,3.93,3.93,0,0,1,1.29-1.69,2.13,2.13,0,0,1,1.28-.42,2.26,2.26,0,0,1,1.86,1.05,4.32,4.32,0,0,1,.63,1.23,5.45,5.45,0,0,1,.28,1.6,3,3,0,0,1-.15,1c-.1.27-.24.41-.41.41Zm-.15-1.94a.37.37,0,0,0,.29.12h.59c.24,0,.36-.2.36-.58a1.8,1.8,0,0,0-.18-.86.54.54,0,0,0-.47-.33c-.22,0-.39.14-.5.43a2,2,0,0,0-.18.81.69.69,0,0,0,.09.41" transform="translate(-25.63 -40.51)"/></g><g class="cls-2"><g class="cls-2"><g class="cls-102"><g class="cls-2"><path class="cls-4" d="M112,46.17l-1.09,1.45a.29.29,0,0,1-.26.11l1.1-1.45a.28.28,0,0,0,.25-.11" transform="translate(-25.63 -40.51)"/></g></g></g><polygon class="cls-12" points="86.13 5.77 85.04 7.22 83.99 7.23 85.08 5.78 86.13 5.77"/><g class="cls-2"><g class="cls-103"><g class="cls-2"><path class="cls-4" d="M110.71,46.29l-1.09,1.45a.24.24,0,0,0-.22.09l1.09-1.45a.27.27,0,0,1,.22-.09" transform="translate(-25.63 -40.51)"/></g></g></g><g class="cls-2"><g class="cls-104"><g class="cls-2"><path class="cls-4" d="M106.69,45.19l-1.09,1.46a.71.71,0,0,1,.12-.41l1.09-1.45a.7.7,0,0,0-.12.4" transform="translate(-25.63 -40.51)"/></g></g></g><polygon class="cls-12" points="82.1 5.69 81 7.14 80.83 7.09 81.93 5.63 82.1 5.69"/><polygon class="cls-12" points="81.07 5.12 79.98 6.57 79.97 6.14 81.07 4.68 81.07 5.12"/><g class="cls-2"><g class="cls-105"><g class="cls-2"><path class="cls-4" d="M107.75,46.48l-1.09,1.45a.78.78,0,0,0,0-.28l1.09-1.45a.7.7,0,0,1,0,.28" transform="translate(-25.63 -40.51)"/></g></g></g><polygon class="cls-12" points="81.93 5.63 80.83 7.09 80.24 7.09 81.33 5.64 81.93 5.63"/><g class="cls-2"><g class="cls-106"><g class="cls-2"><path class="cls-4" d="M106.74,46.06l-1.09,1.45a1.21,1.21,0,0,1-.05-.43l1.1-1.45a1.73,1.73,0,0,0,0,.43" transform="translate(-25.63 -40.51)"/></g></g></g><g class="cls-2"><g class="cls-107"><g class="cls-2"><path class="cls-4" d="M107,46.15l-1.09,1.45a.24.24,0,0,1-.22-.09l1.09-1.45a.24.24,0,0,0,.22.09" transform="translate(-25.63 -40.51)"/></g></g></g><polygon class="cls-12" points="82.15 10.46 81.05 11.92 81.03 7.42 82.13 5.97 82.15 10.46"/><g class="cls-2"><g class="cls-108"><g class="cls-2"><path class="cls-4" d="M111.71,53.13l-1.09,1.45a2.3,2.3,0,0,1-1.88,1,1.69,1.69,0,0,1-1.49-.87,4.3,4.3,0,0,1-.57-2.32L107.77,51a4.35,4.35,0,0,0,.57,2.32,1.69,1.69,0,0,0,1.49.88,2.32,2.32,0,0,0,1.88-1" transform="translate(-25.63 -40.51)"/></g></g></g><path class="cls-16" d="M110.17,41.86a.18.18,0,0,1,.19.11,1,1,0,0,1,.06.44v1.32a.79.79,0,0,0,.06.38.28.28,0,0,0,.23.09h1.07c.15,0,.24,0,.28.13a1.59,1.59,0,0,1,.07.56v.57a1.64,1.64,0,0,1-.08.65.28.28,0,0,1-.29.18h-1.05a.23.23,0,0,0-.22.1.64.64,0,0,0,0,.36v3.3a2.14,2.14,0,0,0,.18,1c.1.25.26.38.43.38a1,1,0,0,0,.59-.36l.18-.09c.09,0,.17.09.25.28a1.42,1.42,0,0,1,.12.61,1.91,1.91,0,0,1-.39,1.16,2.34,2.34,0,0,1-2,1.19,1.69,1.69,0,0,1-1.49-.88,4.35,4.35,0,0,1-.57-2.32l0-4.49a.7.7,0,0,0,0-.28l-.17-.06H107a.24.24,0,0,1-.22-.09,1.73,1.73,0,0,1,0-.43v-.44a.71.71,0,0,1,.14-.43L109.46,42a.32.32,0,0,1,.24-.09Z" transform="translate(-25.63 -40.51)"/></g><g class="cls-2"><g class="cls-2"><g class="cls-109"><g class="cls-2"><path class="cls-4" d="M106.24,47.44l-1.09,1.45a.44.44,0,0,1-.37.21.51.51,0,0,1-.36-.17,5.4,5.4,0,0,1-.5-.73c-.26-.4-.46-.6-.63-.6a.27.27,0,0,0-.23.14l1.09-1.46a.3.3,0,0,1,.24-.13c.16,0,.37.19.62.6a5.81,5.81,0,0,0,.51.72.46.46,0,0,0,.36.17.45.45,0,0,0,.36-.2" transform="translate(-25.63 -40.51)"/></g></g></g><g class="cls-2"><g class="cls-110"><g class="cls-2"><path class="cls-4" d="M105.82,53.37l-1.1,1.46,0,0,1.09-1.45,0,0" transform="translate(-25.63 -40.51)"/></g></g></g><g class="cls-2"><g class="cls-111"><g class="cls-2"><path class="cls-4" d="M103.69,52.16l-1.09,1.45a.89.89,0,0,0,.11-.46,1.07,1.07,0,0,0-.45-.8,5.18,5.18,0,0,1-1.35-1.57,4.71,4.71,0,0,1,0-3.89,3.17,3.17,0,0,1,.29-.49L102.3,45a2.55,2.55,0,0,0-.3.49,4.28,4.28,0,0,0-.42,2,4.17,4.17,0,0,0,.43,1.88,4.92,4.92,0,0,0,1.34,1.58,1,1,0,0,1,.45.8.89.89,0,0,1-.11.46" transform="translate(-25.63 -40.51)"/></g></g></g><g class="cls-2"><g class="cls-112"><g class="cls-2"><path class="cls-4" d="M105.79,53.4l-1.09,1.45a1.79,1.79,0,0,1-1.48.79,4.2,4.2,0,0,1-.82-.12l1.09-1.45a4.2,4.2,0,0,0,.82.12,1.79,1.79,0,0,0,1.48-.79" transform="translate(-25.63 -40.51)"/></g></g></g><g class="cls-2"><g class="cls-113"><g class="cls-2"><path class="cls-4" d="M103.49,54.07l-1.09,1.45-.63-.11L102.86,54l.63.11" transform="translate(-25.63 -40.51)"/></g></g></g><polygon class="cls-12" points="77.24 13.45 76.14 14.9 75.97 14.94 77.07 13.49 77.24 13.45"/><g class="cls-2"><g class="cls-114"><g class="cls-2"><path class="cls-4" d="M102,53.8l-1.1,1.46a4.64,4.64,0,0,1-.43-1.14,5.17,5.17,0,0,1-.21-1.33,1.24,1.24,0,0,1,.16-.77l1.09-1.45a1.32,1.32,0,0,0-.16.77,5.17,5.17,0,0,0,.21,1.33A4.13,4.13,0,0,0,102,53.8" transform="translate(-25.63 -40.51)"/></g></g></g><path class="cls-16" d="M105.39,44.22c.18,0,.37.19.55.56a6,6,0,0,1,.36,1,4,4,0,0,1,.14.94,1.18,1.18,0,0,1-.16.65.48.48,0,0,1-.4.26.46.46,0,0,1-.36-.17,5.81,5.81,0,0,1-.51-.72c-.25-.41-.46-.6-.62-.6a.32.32,0,0,0-.28.2,1,1,0,0,0-.12.47,1.15,1.15,0,0,0,.56.89,5.83,5.83,0,0,1,1.5,1.62,3.91,3.91,0,0,1-.26,4.07,1.79,1.79,0,0,1-1.48.79,4.2,4.2,0,0,1-.82-.12l-.63-.11-.17,0a1,1,0,0,1-.24,0,.5.5,0,0,1-.43-.24,4.13,4.13,0,0,1-.44-1.13,5.17,5.17,0,0,1-.21-1.33c0-.59.14-.9.41-.9a.39.39,0,0,1,.3.18,10.72,10.72,0,0,1,.58,1,3.37,3.37,0,0,0,.38.59.46.46,0,0,0,.35.15.35.35,0,0,0,.3-.16.89.89,0,0,0,.11-.46,1,1,0,0,0-.45-.8A4.92,4.92,0,0,1,102,49.32a4.17,4.17,0,0,1-.43-1.88,4.28,4.28,0,0,1,.42-2,1.82,1.82,0,0,1,1.63-1.21,3.66,3.66,0,0,1,1,.21l.21,0a1,1,0,0,0,.38-.18Z" transform="translate(-25.63 -40.51)"/><g class="cls-2"><g class="cls-115"><g class="cls-2"><path class="cls-4" d="M102.69,54l-1.09,1.45-.24,0a.53.53,0,0,1-.44-.23L102,53.8a.5.5,0,0,0,.43.24,1,1,0,0,0,.24,0" transform="translate(-25.63 -40.51)"/></g></g></g></g><g class="cls-2"><g class="cls-2"><g class="cls-116"><g class="cls-2"><path class="cls-4" d="M97,45.52,95.92,47a3.26,3.26,0,0,1,.34-.62l1.1-1.45a2.8,2.8,0,0,0-.35.62" transform="translate(-25.63 -40.51)"/></g></g></g><g class="cls-2"><g class="cls-117"><g class="cls-2"><path class="cls-4" d="M96.87,45.8l-1.09,1.45a1.45,1.45,0,0,0,.14-.28L97,45.52a1,1,0,0,1-.14.28" transform="translate(-25.63 -40.51)"/></g></g></g><g class="cls-2"><g class="cls-118"><g class="cls-2"><path class="cls-4" d="M93.54,47l-1.09,1.46a.88.88,0,0,1-.26-.64,1,1,0,0,1,.18-.61l1.1-1.45a1,1,0,0,0-.19.61,1,1,0,0,0,.26.63" transform="translate(-25.63 -40.51)"/></g></g></g><g class="cls-2"><g class="cls-119"><g class="cls-2"><path class="cls-4" d="M93.89,47.55,92.8,49a1.54,1.54,0,0,0-.35-.51L93.54,47a1.51,1.51,0,0,1,.35.52" transform="translate(-25.63 -40.51)"/></g></g></g><g class="cls-2"><g class="cls-120"><g class="cls-2"><path class="cls-4" d="M100.83,53.66l-1.09,1.45a1,1,0,0,1-.26.23l1.09-1.45a.73.73,0,0,0,.26-.23" transform="translate(-25.63 -40.51)"/></g></g></g><g class="cls-2"><g class="cls-121"><g class="cls-2"><path class="cls-4" d="M100.57,53.89l-1.09,1.45a3.81,3.81,0,0,1-1.63.26,2.1,2.1,0,0,1-1.13-.23.91.91,0,0,1-.34-.79,1,1,0,0,1,0-.29c0-.06.1-.21.23-.45a8.45,8.45,0,0,0,.22-2.73,8.26,8.26,0,0,0-.19-2c-.1-.35-.29-.52-.56-.52a.5.5,0,0,0-.42.2l1.1-1.45a.46.46,0,0,1,.41-.2c.27,0,.46.16.56.51a7.91,7.91,0,0,1,.19,2,8.6,8.6,0,0,1-.21,2.73,3.07,3.07,0,0,0-.23.45.71.71,0,0,0,0,.29.89.89,0,0,0,.35.79,2,2,0,0,0,1.12.23,4,4,0,0,0,1.63-.26" transform="translate(-25.63 -40.51)"/></g></g></g><g class="cls-2"><g class="cls-122"><g class="cls-2"><path class="cls-4" d="M96.77,53.64l-1.1,1.45a.92.92,0,0,1-.29.26l1.1-1.45a1.45,1.45,0,0,0,.29-.26" transform="translate(-25.63 -40.51)"/></g></g></g><g class="cls-2"><g class="cls-123"><g class="cls-2"><path class="cls-4" d="M93.7,52.32l-1.1,1.45a.76.76,0,0,0,.16-.39,8.69,8.69,0,0,0,.07-1.17c0-.74,0-1.52,0-2.33A4.46,4.46,0,0,0,92.8,49l1.09-1.45a3.77,3.77,0,0,1,.07.88c0,.81,0,1.59,0,2.33s0,1-.06,1.17a1,1,0,0,1-.16.39" transform="translate(-25.63 -40.51)"/></g></g></g><g class="cls-2"><g class="cls-124"><g class="cls-2"><path class="cls-4" d="M93.44,52.7l-1.1,1.45a.73.73,0,0,1,.15-.23l1.09-1.46a1.09,1.09,0,0,0-.14.24" transform="translate(-25.63 -40.51)"/></g></g></g><path class="cls-16" d="M98.46,44.31A1.54,1.54,0,0,1,99.7,45a2.67,2.67,0,0,1,.52,1.07,9.91,9.91,0,0,1,.19,1.82l.09,3.42a1.9,1.9,0,0,0,.08.58,4.66,4.66,0,0,0,.35.71A.8.8,0,0,1,101,53a.93.93,0,0,1-.45.9,4,4,0,0,1-1.63.26,2,2,0,0,1-1.12-.23.89.89,0,0,1-.35-.79.71.71,0,0,1,0-.29,3.07,3.07,0,0,1,.23-.45A8.6,8.6,0,0,0,98,49.66a7.91,7.91,0,0,0-.19-2c-.1-.35-.29-.52-.56-.51a.54.54,0,0,0-.53.42,5,5,0,0,0-.13,1.52V51a5.78,5.78,0,0,0,0,.79,6.6,6.6,0,0,0,.29.82A1.29,1.29,0,0,1,97,53a.94.94,0,0,1-.47.86,3.12,3.12,0,0,1-1.48.27c-1.07,0-1.61-.37-1.61-1.12a.7.7,0,0,1,0-.35,1.05,1.05,0,0,1,.23-.35.9.9,0,0,0,.19-.42c0-.16,0-.55.06-1.17s0-1.52,0-2.33a3.77,3.77,0,0,0-.07-.88,1.51,1.51,0,0,0-.35-.52,1,1,0,0,1-.05-1.27,3.44,3.44,0,0,1,.82-.64c.37-.22.73-.4,1.07-.56a2.3,2.3,0,0,1,.7-.23.35.35,0,0,1,.3.21,1,1,0,0,1,.12.5s0,.11,0,.25v.14c0,.31.08.47.23.47s.2-.13.29-.38C97.34,44.72,97.83,44.31,98.46,44.31Z" transform="translate(-25.63 -40.51)"/><g class="cls-2"><g class="cls-125"><g class="cls-2"><path class="cls-4" d="M96.48,53.9l-1.1,1.45a3.07,3.07,0,0,1-1.47.27c-1.07,0-1.61-.37-1.62-1.12a1.08,1.08,0,0,1,0-.35l1.1-1.45a.7.7,0,0,0,0,.35c0,.75.54,1.13,1.61,1.12a3.12,3.12,0,0,0,1.48-.27" transform="translate(-25.63 -40.51)"/></g></g></g></g><g class="cls-2"><g class="cls-2"><g class="cls-126"><g class="cls-2"><path class="cls-4" d="M89.38,46.53,88.29,48a.4.4,0,0,0-.32.17l1.09-1.45a.39.39,0,0,1,.32-.17" transform="translate(-25.63 -40.51)"/></g></g></g><g class="cls-2"><g class="cls-127"><g class="cls-2"><path class="cls-4" d="M91.9,52.77l-1.1,1.45,0,.06,1.09-1.46.05,0" transform="translate(-25.63 -40.51)"/></g></g></g><g class="cls-2"><g class="cls-128"><g class="cls-2"><path class="cls-4" d="M90.19,51.7l-1.1,1.45a1.64,1.64,0,0,0,.2-.94,14.76,14.76,0,0,0-.15-1.86,10,10,0,0,0-.32-1.69c-.13-.45-.3-.67-.53-.68l1.09-1.45c.23,0,.41.23.53.68a11,11,0,0,1,.33,1.69,14.6,14.6,0,0,1,.14,1.86,1.65,1.65,0,0,1-.19.94" transform="translate(-25.63 -40.51)"/></g></g></g><g class="cls-2"><g class="cls-129"><g class="cls-2"><path class="cls-4" d="M91.85,52.82l-1.09,1.46a3.14,3.14,0,0,1-2.5,1.42A2.6,2.6,0,0,1,86,54.38,6.05,6.05,0,0,1,85.17,51a6.33,6.33,0,0,1,1-3.76l.15-.21,1.09-1.45-.15.21a6.33,6.33,0,0,0-1,3.76,6.14,6.14,0,0,0,.84,3.34,2.6,2.6,0,0,0,2.25,1.32,3.13,3.13,0,0,0,2.5-1.43" transform="translate(-25.63 -40.51)"/></g></g></g><path class="cls-16" d="M92.62,46.91A7.46,7.46,0,0,1,93,49.23a5.63,5.63,0,0,1-1.14,3.59,3.13,3.13,0,0,1-2.5,1.43,2.6,2.6,0,0,1-2.25-1.32,6.14,6.14,0,0,1-.84-3.34,6.33,6.33,0,0,1,1-3.76,3.07,3.07,0,0,1,2.58-1.55,2.36,2.36,0,0,1,1.85.91A5.19,5.19,0,0,1,92.62,46.91Zm-2.75,5c.34,0,.51-.37.51-1.1a14.6,14.6,0,0,0-.14-1.86,11,11,0,0,0-.33-1.69c-.12-.45-.3-.67-.53-.68a.44.44,0,0,0-.4.31,2,2,0,0,0-.15.85A12.82,12.82,0,0,0,89,49.28a16.22,16.22,0,0,0,.31,1.78c.12.54.32.8.59.8" transform="translate(-25.63 -40.51)"/></g><g class="cls-2"><g class="cls-2"><g class="cls-130"><g class="cls-2"><path class="cls-4" d="M85.52,42.64l-1.09,1.45,0,0,1.09-1.45,0,0" transform="translate(-25.63 -40.51)"/></g></g></g><g class="cls-2"><g class="cls-131"><g class="cls-2"><path class="cls-4" d="M82.36,42.24l-1.09,1.45a3.92,3.92,0,0,1,.52-1.26L82.88,41a4.38,4.38,0,0,0-.52,1.27" transform="translate(-25.63 -40.51)"/></g></g></g><g class="cls-2"><g class="cls-132"><g class="cls-2"><path class="cls-4" d="M82.17,42.91l-1.1,1.45c.11-.34.17-.56.2-.67l1.09-1.45c0,.1-.09.33-.19.67" transform="translate(-25.63 -40.51)"/></g></g></g><polygon class="cls-12" points="55.74 5.08 54.65 6.54 55.45 3.85 56.54 2.4 55.74 5.08"/><g class="cls-2"><g class="cls-133"><g class="cls-2"><path class="cls-4" d="M81.16,46.14l-1.09,1.45a3.86,3.86,0,0,0,.2-.54l1.1-1.45a2.74,2.74,0,0,1-.21.54" transform="translate(-25.63 -40.51)"/></g></g></g><g class="cls-2"><g class="cls-134"><g class="cls-2"><path class="cls-4" d="M81.14,46.17l-1.09,1.45,0,0,1.09-1.45,0,0" transform="translate(-25.63 -40.51)"/></g></g></g><g class="cls-2"><g class="cls-135"><g class="cls-2"><path class="cls-4" d="M76.18,42.73l-1.09,1.45a1,1,0,0,1-.42-.85,1.28,1.28,0,0,1,.15-.63c0-.05.05-.1.08-.14L76,41.11l-.09.13a1.46,1.46,0,0,0-.15.63,1.06,1.06,0,0,0,.42.86" transform="translate(-25.63 -40.51)"/></g></g></g><g class="cls-2"><g class="cls-136"><g class="cls-2"><path class="cls-4" d="M78.67,48.48l-1.09,1.46c-.11-.41-.22-.61-.34-.61a.12.12,0,0,0-.1.06l1.09-1.45a.13.13,0,0,1,.11-.06q.16,0,.33.6" transform="translate(-25.63 -40.51)"/></g></g></g><g class="cls-2"><g class="cls-137"><g class="cls-2"><path class="cls-4" d="M82.3,52.15,81.2,53.6a1.68,1.68,0,0,0,.21-.78c0-.4,0-1,0-2a7.08,7.08,0,0,0,0-1q0-.24-.18-.24a.21.21,0,0,0-.17.12l1.09-1.45c.06-.08.11-.12.17-.12s.16.08.18.24a7,7,0,0,1,.05,1c0,.93,0,1.59,0,2a1.94,1.94,0,0,1-.2.78" transform="translate(-25.63 -40.51)"/></g></g></g><g class="cls-2"><g class="cls-138"><g class="cls-2"><path class="cls-4" d="M85.72,53.68l-1.09,1.45a1,1,0,0,1-.33.28,2.08,2.08,0,0,1-.59.21l1.1-1.46a1.82,1.82,0,0,0,.58-.2,1,1,0,0,0,.33-.28" transform="translate(-25.63 -40.51)"/></g></g></g><g class="cls-2"><g class="cls-139"><g class="cls-2"><path class="cls-4" d="M81.94,52.71l-1.09,1.45a4,4,0,0,1,.35-.56l1.1-1.45a3.51,3.51,0,0,0-.36.56" transform="translate(-25.63 -40.51)"/></g></g></g><polygon class="cls-12" points="53.82 10.87 52.73 12.32 51.95 9.43 53.04 7.97 53.82 10.87"/><g class="cls-2"><g class="cls-140"><g class="cls-2"><path class="cls-4" d="M84.81,54.16l-1.1,1.46c-.2,0-.51,0-.94.05a3.52,3.52,0,0,1-1.45-.23,1,1,0,0,1-.54-.9.86.86,0,0,1,.07-.38l1.09-1.45a.84.84,0,0,0-.06.38.9.9,0,0,0,.53.89,3.24,3.24,0,0,0,1.45.23,7.06,7.06,0,0,0,1-.05" transform="translate(-25.63 -40.51)"/></g></g></g><g class="cls-2"><g class="cls-141"><g class="cls-2"><path class="cls-4" d="M80.12,53.54,79,55a9,9,0,0,1-.29-.86c-.16-.49-.28-.93-.38-1.31l1.09-1.45c.1.38.23.82.38,1.31a8.32,8.32,0,0,0,.29.85" transform="translate(-25.63 -40.51)"/></g></g></g><g class="cls-2"><g class="cls-142"><g class="cls-2"><path class="cls-4" d="M80.52,53.63l-1.1,1.45a.19.19,0,0,1-.16.1c-.08,0-.16-.06-.23-.18l1.09-1.46c.07.13.15.19.23.19a.22.22,0,0,0,.17-.1" transform="translate(-25.63 -40.51)"/></g></g></g><g class="cls-2"><g class="cls-143"><g class="cls-2"><path class="cls-4" d="M76.35,52.29l-1.1,1.45a.8.8,0,0,0,.13-.28,5.51,5.51,0,0,0,.11-1c0-.52.06-1.38.09-2.56s0-2.2,0-3a9.86,9.86,0,0,0-.15-2.15.88.88,0,0,0-.12-.3,1.89,1.89,0,0,0-.25-.25l1.09-1.45a1.43,1.43,0,0,1,.25.25.72.72,0,0,1,.12.29,10.48,10.48,0,0,1,.16,2.15c0,.85,0,1.87,0,3s0,2-.08,2.57a6.47,6.47,0,0,1-.12,1,.79.79,0,0,1-.12.28" transform="translate(-25.63 -40.51)"/></g></g></g><g class="cls-2"><g class="cls-144"><g class="cls-2"><path class="cls-4" d="M75.85,52.78l-1.1,1.45,0,0,1.09-1.45,0,0" transform="translate(-25.63 -40.51)"/></g></g></g><g class="cls-2"><g class="cls-145"><g class="cls-2"><path class="cls-4" d="M78.65,53.74l-1.09,1.45a1.77,1.77,0,0,1-1.47.49q-1.4,0-1.41-1a1,1,0,0,1,.07-.4l1.1-1.45a.77.77,0,0,0-.07.39c0,.7.47,1.06,1.41,1.06a1.76,1.76,0,0,0,1.46-.49" transform="translate(-25.63 -40.51)"/></g></g></g><path class="cls-16" d="M77.72,40.53a1.85,1.85,0,0,1,1,.2A.67.67,0,0,1,79,41a5.72,5.72,0,0,1,.25.68l1.22,3.73a4.19,4.19,0,0,0,.28.75.22.22,0,0,0,.21.13.24.24,0,0,0,.2-.14,2.74,2.74,0,0,0,.21-.54l.8-2.69c.1-.34.16-.57.19-.67a3.93,3.93,0,0,1,.55-1.3,1.64,1.64,0,0,1,1.29-.43c1.09,0,1.64.42,1.64,1.25a1.32,1.32,0,0,1-.06.45,2,2,0,0,1-.26.43,1.8,1.8,0,0,0-.33,1c-.08.89-.12,2-.12,3.27,0,1.66.06,3.11.16,4.36a2,2,0,0,0,.11.62,1.89,1.89,0,0,0,.38.49,1,1,0,0,1,.21.63,1,1,0,0,1-.54,1,1.82,1.82,0,0,1-.58.2,7.06,7.06,0,0,1-1,.05A3.24,3.24,0,0,1,82.41,54a.9.9,0,0,1-.53-.89.84.84,0,0,1,.06-.38,3.51,3.51,0,0,1,.36-.56,1.94,1.94,0,0,0,.2-.78c0-.4,0-1.06,0-2a7,7,0,0,0-.05-1c0-.16-.09-.24-.18-.24s-.21.13-.31.38A13.7,13.7,0,0,0,81.56,50l-.68,2.63a7.08,7.08,0,0,1-.29.89c-.07.15-.15.23-.24.23s-.16-.06-.23-.19a8.32,8.32,0,0,1-.29-.85c-.15-.49-.28-.93-.38-1.31l-.78-2.9q-.17-.6-.33-.6c-.13,0-.19.17-.2.52,0,.76,0,1.47,0,2.12a11.79,11.79,0,0,0,.07,1.38,1.08,1.08,0,0,0,.11.31,3,3,0,0,0,.36.35.75.75,0,0,1,.2.57c0,.72-.56,1.1-1.65,1.1-.94,0-1.41-.36-1.41-1.06a.77.77,0,0,1,.07-.39,1.75,1.75,0,0,1,.37-.37.65.65,0,0,0,.25-.4,6.47,6.47,0,0,0,.12-1c0-.52,0-1.38.08-2.57s0-2.19,0-3a10.48,10.48,0,0,0-.16-2.15.72.72,0,0,0-.12-.29,1.43,1.43,0,0,0-.25-.25,1.06,1.06,0,0,1-.42-.86,1.46,1.46,0,0,1,.15-.63.86.86,0,0,1,.41-.39,2.58,2.58,0,0,1,.68-.22A3,3,0,0,1,77.72,40.53Z" transform="translate(-25.63 -40.51)"/></g></svg>